<svg version="1.1" xmlns="http://www.w3.org/2000/svg" xmlns:xlink="http://www.w3.org/1999/xlink" stroke-linecap="round" stroke-linejoin="round" stroke-width="0" fill-rule="evenodd" width="21.12mm" height="51.12mm" viewBox="146950 -133280 21120 51120" id="PlyBGiXDSF89UQ6u9DSS"><g transform="translate(0,-215440) scale(1,-1)" fill="currentColor" stroke="currentColor"><path d="M 158271.904 -107174.819 158271.904 -107984.342 158224.285 -108079.58 158176.666 -108127.2 158081.428 -108174.819 157890.952 -108174.819 157795.714 -108127.2 157748.095 -108079.58 157700.476 -107984.342 157700.476 -107174.819 M 156700.476 -108174.819 157271.904 -108174.819 M 156986.19 -108174.819 156986.19 -107174.819 157081.428 -107317.676 157176.666 -107412.914 157271.904 -107460.533" fill="none" stroke-width="150"/><path d="M 147010 -82220 147010 -82520 M 147010 -84620 147010 -85020 M 147010 -87220 147010 -87620 M 147010 -89720 147010 -90120 M 147010 -92320 147010 -92720 M 147010 -94820 147010 -95220 M 147010 -97320 147010 -97720 M 147010 -99920 147010 -100320 M 147010 -102420 147010 -102820 M 147010 -105020 147010 -105420 M 147010 -107520 147010 -107920 M 147010 -110020 147010 -110420 M 147010 -112620 147010 -113020 M 147010 -115120 147010 -115520 M 147010 -117720 147010 -118120 M 147010 -120220 147010 -120620 M 147010 -122820 147010 -123220 M 147010 -125320 147010 -125720 M 147010 -127820 147010 -128220 M 147010 -130420 147010 -130820 M 147010 -133220 153810 -133220 M 156410 -133220 156010 -133220 M 159010 -133220 158610 -133220 M 161210 -133220 168010 -133220 M 165003 -84887 165003 -82220 M 168010 -82220 147010 -82220 M 168010 -82220 168010 -82520 M 168010 -84620 168010 -85020 M 168010 -84887 165003 -84887 M 168010 -87220 168010 -87620 M 168010 -89720 168010 -90120 M 168010 -92320 168010 -92720 M 168010 -94820 168010 -95220 M 168010 -97320 168010 -97720 M 168010 -99920 168010 -100320 M 168010 -102420 168010 -102820 M 168010 -105020 168010 -105420 M 168010 -107520 168010 -107920 M 168010 -110020 168010 -110420 M 168010 -112620 168010 -113020 M 168010 -115120 168010 -115520 M 168010 -117720 168010 -118120 M 168010 -120220 168010 -120620 M 168010 -122820 168010 -123220 M 168010 -125320 168010 -125720 M 168010 -127820 168010 -128220 M 168010 -130420 168010 -130820" fill="none" stroke-width="120"/></g></svg>