<svg version="1.1" xmlns="http://www.w3.org/2000/svg" xmlns:xlink="http://www.w3.org/1999/xlink" stroke-linecap="round" stroke-linejoin="round" stroke-width="0" fill-rule="evenodd" width="62.03mm" height="82.125mm" viewBox="107050 -146525 62030 82125" id="JRET9rgq8b7XM0k2cvpO"><g transform="translate(0,-210925) scale(1,-1)" fill="currentColor" stroke="currentColor"><path d="M 142541.225 -87184.828 143041.225 -88684.828 143541.225 -87184.828 M 130601.225 -87206.257 130458.368 -87134.828 130244.082 -87134.828 130029.796 -87206.257 129886.939 -87349.114 129815.51 -87491.971 129744.082 -87777.685 129744.082 -87991.971 129815.51 -88277.685 129886.939 -88420.542 130029.796 -88563.4 130244.082 -88634.828 130386.939 -88634.828 130601.225 -88563.4 130672.653 -88491.971 130672.653 -87991.971 130386.939 -87991.971 M 139771.828 -89679.489 138271.828 -89679.489 138271.828 -89322.346 138343.257 -89108.06 138486.114 -88965.203 138628.971 -88893.774 138914.685 -88822.346 139128.971 -88822.346 139414.685 -88893.774 139557.542 -88965.203 139700.4 -89108.06 139771.828 -89322.346 139771.828 -89679.489 M 139200.4 -88179.489 139200.4 -87036.632 M 135331.828 -89489.489 133831.828 -89489.489 133831.828 -89132.346 133903.257 -88918.06 134046.114 -88775.203 134188.971 -88703.774 134474.685 -88632.346 134688.971 -88632.346 134974.685 -88703.774 135117.542 -88775.203 135260.4 -88918.06 135331.828 -89132.346 135331.828 -89489.489 M 134760.4 -87989.489 134760.4 -86846.632 M 135331.828 -87418.06 134188.971 -87418.06" fill="none" stroke-width="300"/><path d="M 120596.667 -93913.2 120739.524 -93960.819 120977.619 -93960.819 121072.857 -93913.2 121120.476 -93865.58 121168.095 -93770.342 121168.095 -93675.104 121120.476 -93579.866 121072.857 -93532.247 120977.619 -93484.628 120787.143 -93437.009 120691.905 -93389.39 120644.286 -93341.771 120596.667 -93246.533 120596.667 -93151.295 120644.286 -93056.057 120691.905 -93008.438 120787.143 -92960.819 121025.238 -92960.819 121168.095 -93008.438 M 121501.429 -92960.819 121739.524 -93960.819 121930 -93246.533 122120.476 -93960.819 122358.572 -92960.819 M 122787.143 -93960.819 122977.619 -93960.819 123072.857 -93913.2 123120.476 -93865.58 123215.714 -93722.723 123263.333 -93532.247 123263.333 -93151.295 123215.714 -93056.057 123168.095 -93008.438 123072.857 -92960.819 122882.381 -92960.819 122787.143 -93008.438 122739.524 -93056.057 122691.905 -93151.295 122691.905 -93389.39 122739.524 -93484.628 122787.143 -93532.247 122882.381 -93579.866 123072.857 -93579.866 123168.095 -93532.247 123215.714 -93484.628 123263.333 -93389.39 M 136246.666 -82384.819 136246.666 -83099.104 136199.047 -83241.961 136103.809 -83337.2 135960.952 -83384.819 135865.714 -83384.819 M 137246.666 -83384.819 136675.238 -83384.819 M 136960.952 -83384.819 136960.952 -82384.819 136865.714 -82527.676 136770.476 -82622.914 136675.238 -82670.533 M 115584.761 -77784.819 115251.428 -77308.628 M 115013.333 -77784.819 115013.333 -76784.819 115394.285 -76784.819 115489.523 -76832.438 115537.142 -76880.057 115584.761 -76975.295 115584.761 -77118.152 115537.142 -77213.39 115489.523 -77261.009 115394.285 -77308.628 115013.333 -77308.628 M 115870.476 -76784.819 116203.809 -77784.819 116537.142 -76784.819 M 117394.285 -77784.819 116822.857 -77784.819 M 117108.571 -77784.819 117108.571 -76784.819 117013.333 -76927.676 116918.095 -77022.914 116822.857 -77070.533 M 158696.667 -93893.2 158839.524 -93940.819 159077.619 -93940.819 159172.857 -93893.2 159220.476 -93845.58 159268.095 -93750.342 159268.095 -93655.104 159220.476 -93559.866 159172.857 -93512.247 159077.619 -93464.628 158887.143 -93417.009 158791.905 -93369.39 158744.286 -93321.771 158696.667 -93226.533 158696.667 -93131.295 158744.286 -93036.057 158791.905 -92988.438 158887.143 -92940.819 159125.238 -92940.819 159268.095 -92988.438 M 159601.429 -92940.819 159839.524 -93940.819 160030 -93226.533 160220.476 -93940.819 160458.572 -92940.819 M 160744.286 -92940.819 161363.333 -92940.819 161030 -93321.771 161172.857 -93321.771 161268.095 -93369.39 161315.714 -93417.009 161363.333 -93512.247 161363.333 -93750.342 161315.714 -93845.58 161268.095 -93893.2 161172.857 -93940.819 160887.143 -93940.819 160791.905 -93893.2 160744.286 -93845.58 M 158716.667 -131993.2 158859.524 -132040.819 159097.619 -132040.819 159192.857 -131993.2 159240.476 -131945.58 159288.095 -131850.342 159288.095 -131755.104 159240.476 -131659.866 159192.857 -131612.247 159097.619 -131564.628 158907.143 -131517.009 158811.905 -131469.39 158764.286 -131421.771 158716.667 -131326.533 158716.667 -131231.295 158764.286 -131136.057 158811.905 -131088.438 158907.143 -131040.819 159145.238 -131040.819 159288.095 -131088.438 M 159621.429 -131040.819 159859.524 -132040.819 160050 -131326.533 160240.476 -132040.819 160478.572 -131040.819 M 161383.333 -132040.819 160811.905 -132040.819 M 161097.619 -132040.819 161097.619 -131040.819 161002.381 -131183.676 160907.143 -131278.914 160811.905 -131326.533 M 139656.667 -112953.2 139799.524 -113000.819 140037.619 -113000.819 140132.857 -112953.2 140180.476 -112905.58 140228.095 -112810.342 140228.095 -112715.104 140180.476 -112619.866 140132.857 -112572.247 140037.619 -112524.628 139847.143 -112477.009 139751.905 -112429.39 139704.286 -112381.771 139656.667 -112286.533 139656.667 -112191.295 139704.286 -112096.057 139751.905 -112048.438 139847.143 -112000.819 140085.238 -112000.819 140228.095 -112048.438 M 140561.429 -112000.819 140799.524 -113000.819 140990 -112286.533 141180.476 -113000.819 141418.572 -112000.819 M 142275.714 -112000.819 141799.524 -112000.819 141751.905 -112477.009 141799.524 -112429.39 141894.762 -112381.771 142132.857 -112381.771 142228.095 -112429.39 142275.714 -112477.009 142323.333 -112572.247 142323.333 -112810.342 142275.714 -112905.58 142228.095 -112953.2 142132.857 -113000.819 141894.762 -113000.819 141799.524 -112953.2 141751.905 -112905.58 M 139646.667 -93903.2 139789.524 -93950.819 140027.619 -93950.819 140122.857 -93903.2 140170.476 -93855.58 140218.095 -93760.342 140218.095 -93665.104 140170.476 -93569.866 140122.857 -93522.247 140027.619 -93474.628 139837.143 -93427.009 139741.905 -93379.39 139694.286 -93331.771 139646.667 -93236.533 139646.667 -93141.295 139694.286 -93046.057 139741.905 -92998.438 139837.143 -92950.819 140075.238 -92950.819 140218.095 -92998.438 M 140551.429 -92950.819 140789.524 -93950.819 140980 -93236.533 141170.476 -93950.819 141408.572 -92950.819 M 142218.095 -92950.819 142027.619 -92950.819 141932.381 -92998.438 141884.762 -93046.057 141789.524 -93188.914 141741.905 -93379.39 141741.905 -93760.342 141789.524 -93855.58 141837.143 -93903.2 141932.381 -93950.819 142122.857 -93950.819 142218.095 -93903.2 142265.714 -93855.58 142313.333 -93760.342 142313.333 -93522.247 142265.714 -93427.009 142218.095 -93379.39 142122.857 -93331.771 141932.381 -93331.771 141837.143 -93379.39 141789.524 -93427.009 141741.905 -93522.247 M 120616.667 -132013.2 120759.524 -132060.819 120997.619 -132060.819 121092.857 -132013.2 121140.476 -131965.58 121188.095 -131870.342 121188.095 -131775.104 121140.476 -131679.866 121092.857 -131632.247 120997.619 -131584.628 120807.143 -131537.009 120711.905 -131489.39 120664.286 -131441.771 120616.667 -131346.533 120616.667 -131251.295 120664.286 -131156.057 120711.905 -131108.438 120807.143 -131060.819 121045.238 -131060.819 121188.095 -131108.438 M 121521.429 -131060.819 121759.524 -132060.819 121950 -131346.533 122140.476 -132060.819 122378.572 -131060.819 M 122664.286 -131060.819 123330.952 -131060.819 122902.381 -132060.819 M 158706.667 -112943.2 158849.524 -112990.819 159087.619 -112990.819 159182.857 -112943.2 159230.476 -112895.58 159278.095 -112800.342 159278.095 -112705.104 159230.476 -112609.866 159182.857 -112562.247 159087.619 -112514.628 158897.143 -112467.009 158801.905 -112419.39 158754.286 -112371.771 158706.667 -112276.533 158706.667 -112181.295 158754.286 -112086.057 158801.905 -112038.438 158897.143 -111990.819 159135.238 -111990.819 159278.095 -112038.438 M 159611.429 -111990.819 159849.524 -112990.819 160040 -112276.533 160230.476 -112990.819 160468.572 -111990.819 M 160801.905 -112086.057 160849.524 -112038.438 160944.762 -111990.819 161182.857 -111990.819 161278.095 -112038.438 161325.714 -112086.057 161373.333 -112181.295 161373.333 -112276.533 161325.714 -112419.39 160754.286 -112990.819 161373.333 -112990.819 M 120606.667 -112963.2 120749.524 -113010.819 120987.619 -113010.819 121082.857 -112963.2 121130.476 -112915.58 121178.095 -112820.342 121178.095 -112725.104 121130.476 -112629.866 121082.857 -112582.247 120987.619 -112534.628 120797.143 -112487.009 120701.905 -112439.39 120654.286 -112391.771 120606.667 -112296.533 120606.667 -112201.295 120654.286 -112106.057 120701.905 -112058.438 120797.143 -112010.819 121035.238 -112010.819 121178.095 -112058.438 M 121511.429 -112010.819 121749.524 -113010.819 121940 -112296.533 122130.476 -113010.819 122368.572 -112010.819 M 122892.381 -112439.39 122797.143 -112391.771 122749.524 -112344.152 122701.905 -112248.914 122701.905 -112201.295 122749.524 -112106.057 122797.143 -112058.438 122892.381 -112010.819 123082.857 -112010.819 123178.095 -112058.438 123225.714 -112106.057 123273.333 -112201.295 123273.333 -112248.914 123225.714 -112344.152 123178.095 -112391.771 123082.857 -112439.39 122892.381 -112439.39 122797.143 -112487.009 122749.524 -112534.628 122701.905 -112629.866 122701.905 -112820.342 122749.524 -112915.58 122797.143 -112963.2 122892.381 -113010.819 123082.857 -113010.819 123178.095 -112963.2 123225.714 -112915.58 123273.333 -112820.342 123273.333 -112629.866 123225.714 -112534.628 123178.095 -112487.009 123082.857 -112439.39" fill="none" stroke-width="150"/><path d="M 150791.904 -74402.58 150791.904 -73593.057 150744.285 -73497.819 150696.666 -73450.2 150601.428 -73402.58 150410.952 -73402.58 150315.714 -73450.2 150268.095 -73497.819 150220.476 -73593.057 150220.476 -74402.58 M 149791.904 -74307.342 149744.285 -74354.961 149649.047 -74402.58 149410.952 -74402.58 149315.714 -74354.961 149268.095 -74307.342 149220.476 -74212.104 149220.476 -74116.866 149268.095 -73974.009 149839.523 -73402.58 149220.476 -73402.58 M 133918.646 -74361.228 134418.646 -75861.228 134918.646 -74361.228 M 136275.788 -75718.371 136204.36 -75789.8 135990.074 -75861.228 135847.217 -75861.228 135632.931 -75789.8 135490.074 -75646.942 135418.645 -75504.085 135347.217 -75218.371 135347.217 -75004.085 135418.645 -74718.371 135490.074 -74575.514 135632.931 -74432.657 135847.217 -74361.228 135990.074 -74361.228 136204.36 -74432.657 136275.788 -74504.085 M 137775.788 -75718.371 137704.36 -75789.8 137490.074 -75861.228 137347.217 -75861.228 137132.931 -75789.8 136990.074 -75646.942 136918.645 -75504.085 136847.217 -75218.371 136847.217 -75004.085 136918.645 -74718.371 136990.074 -74575.514 137132.931 -74432.657 137347.217 -74361.228 137490.074 -74361.228 137704.36 -74432.657 137775.788 -74504.085 M 133981.503 -70669.8 134195.789 -70741.228 134552.931 -70741.228 134695.789 -70669.8 134767.217 -70598.371 134838.646 -70455.514 134838.646 -70312.657 134767.217 -70169.8 134695.789 -70098.371 134552.931 -70026.942 134267.217 -69955.514 134124.36 -69884.085 134052.931 -69812.657 133981.503 -69669.8 133981.503 -69526.942 134052.931 -69384.085 134124.36 -69312.657 134267.217 -69241.228 134624.36 -69241.228 134838.646 -69312.657 M 135481.502 -70741.228 135481.502 -69241.228 135838.645 -69241.228 136052.931 -69312.657 136195.788 -69455.514 136267.217 -69598.371 136338.645 -69884.085 136338.645 -70098.371 136267.217 -70384.085 136195.788 -70526.942 136052.931 -70669.8 135838.645 -70741.228 135481.502 -70741.228 M 136910.074 -70312.657 137624.36 -70312.657 M 136767.217 -70741.228 137267.217 -69241.228 137767.217 -70741.228 M 134678.646 -76872.657 134535.789 -76801.228 134321.503 -76801.228 134107.217 -76872.657 133964.36 -77015.514 133892.931 -77158.371 133821.503 -77444.085 133821.503 -77658.371 133892.931 -77944.085 133964.36 -78086.942 134107.217 -78229.8 134321.503 -78301.228 134464.36 -78301.228 134678.646 -78229.8 134750.074 -78158.371 134750.074 -77658.371 134464.36 -77658.371 M 135392.931 -78301.228 135392.931 -76801.228 136250.074 -78301.228 136250.074 -76801.228 M 136964.36 -78301.228 136964.36 -76801.228 137321.503 -76801.228 137535.789 -76872.657 137678.646 -77015.514 137750.075 -77158.371 137821.503 -77444.085 137821.503 -77658.371 137750.075 -77944.085 137678.646 -78086.942 137535.789 -78229.8 137321.503 -78301.228 136964.36 -78301.228 M 133981.503 -73179.8 134195.789 -73251.228 134552.931 -73251.228 134695.789 -73179.8 134767.217 -73108.371 134838.646 -72965.514 134838.646 -72822.657 134767.217 -72679.8 134695.789 -72608.371 134552.931 -72536.942 134267.217 -72465.514 134124.36 -72394.085 134052.931 -72322.657 133981.503 -72179.8 133981.503 -72036.942 134052.931 -71894.085 134124.36 -71822.657 134267.217 -71751.228 134624.36 -71751.228 134838.646 -71822.657 M 136338.645 -73108.371 136267.217 -73179.8 136052.931 -73251.228 135910.074 -73251.228 135695.788 -73179.8 135552.931 -73036.942 135481.502 -72894.085 135410.074 -72608.371 135410.074 -72394.085 135481.502 -72108.371 135552.931 -71965.514 135695.788 -71822.657 135910.074 -71751.228 136052.931 -71751.228 136267.217 -71822.657 136338.645 -71894.085 M 136981.502 -73251.228 136981.502 -71751.228 M 137838.645 -73251.228 137195.788 -72394.085 M 137838.645 -71751.228 136981.502 -72608.371" fill="none" stroke-width="100"/><path d="M 139666.667 -132003.2 139809.524 -132050.819 140047.619 -132050.819 140142.857 -132003.2 140190.476 -131955.58 140238.095 -131860.342 140238.095 -131765.104 140190.476 -131669.866 140142.857 -131622.247 140047.619 -131574.628 139857.143 -131527.009 139761.905 -131479.39 139714.286 -131431.771 139666.667 -131336.533 139666.667 -131241.295 139714.286 -131146.057 139761.905 -131098.438 139857.143 -131050.819 140095.238 -131050.819 140238.095 -131098.438 M 140571.429 -131050.819 140809.524 -132050.819 141000 -131336.533 141190.476 -132050.819 141428.572 -131050.819 M 142238.095 -131384.152 142238.095 -132050.819 M 142000 -131003.2 141761.905 -131717.485 142380.952 -131717.485" fill="none" stroke-width="150"/><path d="M 114945 -94395 128915 -94395 M 114945 -108365 114945 -94395 M 128915 -94395 128915 -108365 114945 -108365 M 107110 -79460 125250 -79460 M 107110 -90200 107110 -79460 M 107110 -90200 125250 -90200 M 112560 -74460 119800 -74460 M 112560 -79460 112560 -74460 M 113060 -64460 119300 -64460 M 113060 -74460 113060 -64460 M 119300 -74460 119300 -64460 M 119800 -79460 119800 -74460 M 125250 -90200 125250 -79460 M 153045 -94375 167015 -94375 M 153045 -108345 153045 -94375 M 167015 -94375 167015 -108345 153045 -108345 M 153065 -132475 167035 -132475 M 153065 -146445 153065 -132475 M 167035 -132475 167035 -146445 153065 -146445 M 134005 -113435 147975 -113435 M 134005 -127405 134005 -113435 M 147975 -113435 147975 -127405 134005 -127405 M 133995 -94385 147965 -94385 M 133995 -108355 133995 -94385 M 147965 -94385 147965 -108355 133995 -108355 M 114965 -132495 128935 -132495 M 114965 -146465 114965 -132495 M 128935 -132495 128935 -146465 114965 -146465 M 153055 -113425 167025 -113425 M 153055 -127395 153055 -113425 M 167025 -113425 167025 -127395 153055 -127395 M 114955 -113445 128925 -113445 M 114955 -127415 114955 -113445 M 128925 -113445 128925 -127415 114955 -127415" fill="none" stroke-width="120"/><path d="M 131030 -67860 169030 -67860 M 131030 -79860 131030 -67860 M 169030 -67860 169030 -79860 131030 -79860 169030 -79860 169030 -67860 131030 -67860 131030 -79860" fill="none" stroke-width="100"/><path d="M 134015 -132485 147985 -132485 M 134015 -146455 134015 -132485 M 147985 -132485 147985 -146455 134015 -146455" fill="none" stroke-width="120"/></g></svg>