<svg version="1.1" xmlns="http://www.w3.org/2000/svg" xmlns:xlink="http://www.w3.org/1999/xlink" stroke-linecap="round" stroke-linejoin="round" stroke-width="0" fill-rule="evenodd" width="21.28mm" height="49.96mm" viewBox="145970 -132700 21280 49960" id="j2BL_Zg42_T2wEDsIa6_"><defs><rect x="-850" y="-850" width="1700" height="1700" rx="850" ry="850" id="j2BL_Zg42_T2wEDsIa6__pad-10"/><rect x="-850" y="-850" width="1700" height="1700" id="j2BL_Zg42_T2wEDsIa6__pad-11"/><rect x="-1750" y="-850" width="3500" height="1700" id="j2BL_Zg42_T2wEDsIa6__pad-12"/></defs><g transform="translate(0,-215440) scale(1,-1)" fill="currentColor" stroke="currentColor"><use xlink:href="#j2BL_Zg42_T2wEDsIa6__pad-10" x="166400" y="-83590"/><use xlink:href="#j2BL_Zg42_T2wEDsIa6__pad-10" x="166400" y="-86130"/><use xlink:href="#j2BL_Zg42_T2wEDsIa6__pad-11" x="166400" y="-88670"/><use xlink:href="#j2BL_Zg42_T2wEDsIa6__pad-10" x="166400" y="-91210"/><use xlink:href="#j2BL_Zg42_T2wEDsIa6__pad-10" x="166400" y="-93750"/><use xlink:href="#j2BL_Zg42_T2wEDsIa6__pad-10" x="166400" y="-96290"/><use xlink:href="#j2BL_Zg42_T2wEDsIa6__pad-10" x="166400" y="-98830"/><use xlink:href="#j2BL_Zg42_T2wEDsIa6__pad-11" x="166400" y="-101370"/><use xlink:href="#j2BL_Zg42_T2wEDsIa6__pad-10" x="166400" y="-103910"/><use xlink:href="#j2BL_Zg42_T2wEDsIa6__pad-10" x="166400" y="-106450"/><use xlink:href="#j2BL_Zg42_T2wEDsIa6__pad-10" x="166400" y="-108990"/><use xlink:href="#j2BL_Zg42_T2wEDsIa6__pad-10" x="166400" y="-111530"/><use xlink:href="#j2BL_Zg42_T2wEDsIa6__pad-11" x="166400" y="-114070"/><use xlink:href="#j2BL_Zg42_T2wEDsIa6__pad-10" x="166400" y="-116610"/><use xlink:href="#j2BL_Zg42_T2wEDsIa6__pad-10" x="166400" y="-119150"/><use xlink:href="#j2BL_Zg42_T2wEDsIa6__pad-10" x="166400" y="-121690"/><use xlink:href="#j2BL_Zg42_T2wEDsIa6__pad-10" x="166400" y="-124230"/><use xlink:href="#j2BL_Zg42_T2wEDsIa6__pad-11" x="166400" y="-126770"/><use xlink:href="#j2BL_Zg42_T2wEDsIa6__pad-10" x="166400" y="-129310"/><use xlink:href="#j2BL_Zg42_T2wEDsIa6__pad-10" x="166400" y="-131850"/><use xlink:href="#j2BL_Zg42_T2wEDsIa6__pad-10" x="148620" y="-131850"/><use xlink:href="#j2BL_Zg42_T2wEDsIa6__pad-10" x="148620" y="-129310"/><use xlink:href="#j2BL_Zg42_T2wEDsIa6__pad-11" x="148620" y="-126770"/><use xlink:href="#j2BL_Zg42_T2wEDsIa6__pad-10" x="148620" y="-124230"/><use xlink:href="#j2BL_Zg42_T2wEDsIa6__pad-10" x="148620" y="-121690"/><use xlink:href="#j2BL_Zg42_T2wEDsIa6__pad-10" x="148620" y="-119150"/><use xlink:href="#j2BL_Zg42_T2wEDsIa6__pad-10" x="148620" y="-116610"/><use xlink:href="#j2BL_Zg42_T2wEDsIa6__pad-11" x="148620" y="-114070"/><use xlink:href="#j2BL_Zg42_T2wEDsIa6__pad-10" x="148620" y="-111530"/><use xlink:href="#j2BL_Zg42_T2wEDsIa6__pad-10" x="148620" y="-108990"/><use xlink:href="#j2BL_Zg42_T2wEDsIa6__pad-10" x="148620" y="-106450"/><use xlink:href="#j2BL_Zg42_T2wEDsIa6__pad-10" x="148620" y="-103910"/><use xlink:href="#j2BL_Zg42_T2wEDsIa6__pad-12" x="147720" y="-103910"/><use xlink:href="#j2BL_Zg42_T2wEDsIa6__pad-11" x="148620" y="-101370"/><use xlink:href="#j2BL_Zg42_T2wEDsIa6__pad-10" x="148620" y="-98830"/><use xlink:href="#j2BL_Zg42_T2wEDsIa6__pad-10" x="148620" y="-96290"/><use xlink:href="#j2BL_Zg42_T2wEDsIa6__pad-10" x="148620" y="-93750"/><use xlink:href="#j2BL_Zg42_T2wEDsIa6__pad-10" x="148620" y="-91210"/><use xlink:href="#j2BL_Zg42_T2wEDsIa6__pad-11" x="148620" y="-88670"/><use xlink:href="#j2BL_Zg42_T2wEDsIa6__pad-10" x="148620" y="-86130"/><use xlink:href="#j2BL_Zg42_T2wEDsIa6__pad-10" x="148620" y="-83590"/><use xlink:href="#j2BL_Zg42_T2wEDsIa6__pad-10" x="160050" y="-131620"/><use xlink:href="#j2BL_Zg42_T2wEDsIa6__pad-11" x="157510" y="-131620"/><use xlink:href="#j2BL_Zg42_T2wEDsIa6__pad-10" x="154970" y="-131620"/></g></svg>