<svg version="1.1" xmlns="http://www.w3.org/2000/svg" xmlns:xlink="http://www.w3.org/1999/xlink" stroke-linecap="round" stroke-linejoin="round" stroke-width="0" fill-rule="evenodd" width="64.349mm" height="86.999mm" viewBox="105950.5 -150699.5 64349 86999" id="kRdd0NVF9P09km6r2Fxg"><defs><circle cx="0" cy="0" r="1100" id="kRdd0NVF9P09km6r2Fxg_pad-10"/><g id="kRdd0NVF9P09km6r2Fxg_pad-11"><polygon points="-675,-675 675,-675 675,675 -675,675"/><circle cx="-675" cy="-675" r="250"/><circle cx="675" cy="-675" r="250"/><circle cx="675" cy="675" r="250"/><circle cx="-675" cy="675" r="250"/><polygon points="-675,-925 675,-925 675,-425 -675,-425"/><polygon points="925,-675 925,675 425,675 425,-675"/><polygon points="675,425 -675,425 -675,925 675,925"/><polygon points="-425,675 -425,-675 -925,-675 -925,675"/></g><circle cx="0" cy="0" r="925" id="kRdd0NVF9P09km6r2Fxg_pad-12"/><rect x="-1500" y="-1500" width="3000" height="3000" id="kRdd0NVF9P09km6r2Fxg_pad-13"/><circle cx="0" cy="0" r="1500" id="kRdd0NVF9P09km6r2Fxg_pad-14"/><rect x="-950" y="-950" width="1900" height="1900" id="kRdd0NVF9P09km6r2Fxg_pad-15"/><circle cx="0" cy="0" r="950" id="kRdd0NVF9P09km6r2Fxg_pad-16"/><circle cx="0" cy="0" r="300" id="kRdd0NVF9P09km6r2Fxg_pad-17"/></defs><g transform="translate(0,-214400) scale(1,-1)" fill="currentColor" stroke="currentColor"><use xlink:href="#kRdd0NVF9P09km6r2Fxg_pad-10" x="124470" y="-96300"/><use xlink:href="#kRdd0NVF9P09km6r2Fxg_pad-10" x="118120" y="-98840"/><use xlink:href="#kRdd0NVF9P09km6r2Fxg_pad-11" x="130280" y="-85050"/><use xlink:href="#kRdd0NVF9P09km6r2Fxg_pad-12" x="134480" y="-85050"/><use xlink:href="#kRdd0NVF9P09km6r2Fxg_pad-12" x="138680" y="-85050"/><use xlink:href="#kRdd0NVF9P09km6r2Fxg_pad-12" x="142880" y="-85050"/><use xlink:href="#kRdd0NVF9P09km6r2Fxg_pad-13" x="121180" y="-83380"/><use xlink:href="#kRdd0NVF9P09km6r2Fxg_pad-14" x="116180" y="-83380"/><use xlink:href="#kRdd0NVF9P09km6r2Fxg_pad-14" x="111180" y="-83380"/><use xlink:href="#kRdd0NVF9P09km6r2Fxg_pad-10" x="162570" y="-96280"/><use xlink:href="#kRdd0NVF9P09km6r2Fxg_pad-10" x="156220" y="-98820"/><use xlink:href="#kRdd0NVF9P09km6r2Fxg_pad-10" x="162590" y="-134380"/><use xlink:href="#kRdd0NVF9P09km6r2Fxg_pad-10" x="156240" y="-136920"/><use xlink:href="#kRdd0NVF9P09km6r2Fxg_pad-10" x="143530" y="-115340"/><use xlink:href="#kRdd0NVF9P09km6r2Fxg_pad-10" x="137180" y="-117880"/><use xlink:href="#kRdd0NVF9P09km6r2Fxg_pad-10" x="143520" y="-96290"/><use xlink:href="#kRdd0NVF9P09km6r2Fxg_pad-10" x="137170" y="-98830"/><use xlink:href="#kRdd0NVF9P09km6r2Fxg_pad-10" x="124490" y="-134400"/><use xlink:href="#kRdd0NVF9P09km6r2Fxg_pad-10" x="118140" y="-136940"/><use xlink:href="#kRdd0NVF9P09km6r2Fxg_pad-10" x="162580" y="-115330"/><use xlink:href="#kRdd0NVF9P09km6r2Fxg_pad-10" x="156230" y="-117870"/><use xlink:href="#kRdd0NVF9P09km6r2Fxg_pad-10" x="124480" y="-115350"/><use xlink:href="#kRdd0NVF9P09km6r2Fxg_pad-10" x="118130" y="-117890"/><use xlink:href="#kRdd0NVF9P09km6r2Fxg_pad-15" x="132530" y="-77670"/><use xlink:href="#kRdd0NVF9P09km6r2Fxg_pad-16" x="132530" y="-75130"/><use xlink:href="#kRdd0NVF9P09km6r2Fxg_pad-16" x="132530" y="-72590"/><use xlink:href="#kRdd0NVF9P09km6r2Fxg_pad-16" x="132530" y="-70050"/><use xlink:href="#kRdd0NVF9P09km6r2Fxg_pad-10" x="143540" y="-134390"/><use xlink:href="#kRdd0NVF9P09km6r2Fxg_pad-10" x="137190" y="-136930"/><use xlink:href="#kRdd0NVF9P09km6r2Fxg_pad-17" x="148620" y="-131850"/><use xlink:href="#kRdd0NVF9P09km6r2Fxg_pad-17" x="148620" y="-86130"/><use xlink:href="#kRdd0NVF9P09km6r2Fxg_pad-17" x="166400" y="-131850"/><use xlink:href="#kRdd0NVF9P09km6r2Fxg_pad-17" x="148620" y="-106450"/><use xlink:href="#kRdd0NVF9P09km6r2Fxg_pad-17" x="148620" y="-93750"/><use xlink:href="#kRdd0NVF9P09km6r2Fxg_pad-17" x="166400" y="-83590"/><use xlink:href="#kRdd0NVF9P09km6r2Fxg_pad-17" x="166400" y="-86130"/><path d="M 134480 -85050 150730 -101300 M 150110 -131850 148620 -131850 M 150730 -131230 150110 -131850 M 150730 -101300 150730 -131230 M 135860 -78460 136290 -78460 M 142880 -85050 143960 -86130 M 132530 -75130 135860 -78460 M 143960 -86130 148620 -86130 M 132530 -75130 132960 -75130 M 136290 -78460 142880 -85050 M 164090 -110460 164090 -129540 M 138680 -85050 164090 -110460 M 164090 -129540 166400 -131850 M 109379 -93458.943 122370.057 -106450 M 116180 -83380 114379 -81579 M 110434.001 -81579 109379 -82634.001 M 114379 -81579 110434.001 -81579 M 122370.057 -106450 148620 -106450 M 109379 -82634.001 109379 -93458.943 M 148620 -93256.174 148620 -93750 M 111180 -83380 112981 -85181 M 128012.84 -85181 129369.84 -83824 M 112981 -85181 128012.84 -85181 M 129369.84 -83824 139187.826 -83824 148620 -93256.174 M 169420 -87490 165080 -87490 M 169420 -78990 169420 -87490 M 132530 -70050 160480 -70050 M 165080 -87490 165080 -84910 166400 -83590 M 160480 -70050 169420 -78990 M 167950 -84580 166400 -86130 M 132530 -72590 162350 -72590 167950 -78190 167950 -84580" fill="none" stroke-width="200"/><path d="M 170242.539 -63720.185 170288.294 -63772.989 170299.5 -63824.5 170299.5 -150575.5 170279.815 -150642.539 170227.011 -150688.294 170175.5 -150699.5 106074.5 -150699.5 106007.461 -150679.815 105961.706 -150627.011 105950.5 -150575.5 105950.5 -139332.486 119699.5 -139332.486 119699.5 -139627.513 119731.571 -139871.113 119738.007 -139919.993 119811.682 -140194.952 119814.361 -140204.951 119814.364 -140204.961 119927.254 -140477.5 119927.258 -140477.51 120074.761 -140732.993 120254.352 -140967.04 120254.358 -140967.047 120462.952 -141175.641 120462.959 -141175.647 120697.006 -141355.238 120952.489 -141502.741 120952.49 -141502.741 120952.493 -141502.743 121225.048 -141615.639 121510.007 -141691.993 121802.494 -141730.5 121802.501 -141730.5 122097.499 -141730.5 122097.506 -141730.5 122389.993 -141691.993 122674.952 -141615.639 122947.507 -141502.743 123202.994 -141355.238 123437.042 -141175.646 123645.646 -140967.042 123825.238 -140732.994 123972.743 -140477.507 124085.639 -140204.952 124161.993 -139919.993 124200.5 -139627.506 124200.5 -139332.494 124199.183 -139322.494 124199.182 -139322.486 138749.5 -139322.486 138749.5 -139617.513 138750.817 -139627.513 138788.007 -139909.993 138861.682 -140184.952 138864.361 -140194.951 138864.364 -140194.961 138977.254 -140467.5 138977.258 -140467.51 139124.761 -140722.993 139304.352 -140957.04 139304.358 -140957.047 139512.952 -141165.641 139512.959 -141165.647 139747.006 -141345.238 140002.489 -141492.741 140002.49 -141492.741 140002.493 -141492.743 140275.048 -141605.639 140560.007 -141681.993 140852.494 -141720.5 140852.501 -141720.5 141147.499 -141720.5 141147.506 -141720.5 141439.993 -141681.993 141724.952 -141605.639 141997.507 -141492.743 142252.994 -141345.238 142487.042 -141165.646 142695.646 -140957.042 142875.238 -140722.994 143022.743 -140467.507 143135.639 -140194.952 143211.993 -139909.993 143250.5 -139617.506 143250.5 -139322.494 143249.183 -139312.494 143249.182 -139312.486 157799.5 -139312.486 157799.5 -139607.513 157831.571 -139851.113 157838.007 -139899.993 157914.361 -140184.951 157914.364 -140184.961 158027.254 -140457.5 158027.258 -140457.51 158174.761 -140712.993 158354.352 -140947.04 158354.358 -140947.047 158562.952 -141155.641 158562.959 -141155.647 158797.006 -141335.238 159052.489 -141482.741 159052.49 -141482.741 159052.493 -141482.743 159325.048 -141595.639 159610.007 -141671.993 159902.494 -141710.5 159902.501 -141710.5 160197.499 -141710.5 160197.506 -141710.5 160489.993 -141671.993 160774.952 -141595.639 161047.507 -141482.743 161302.994 -141335.238 161537.042 -141155.646 161745.646 -140947.042 161925.238 -140712.994 162072.743 -140457.507 162185.639 -140184.952 162261.993 -139899.993 162300.5 -139607.506 162300.5 -139312.494 162261.993 -139020.007 162185.639 -138735.048 162072.743 -138462.493 162044.041 -138412.78 161925.238 -138207.006 161745.647 -137972.959 161745.641 -137972.952 161537.047 -137764.358 161537.04 -137764.352 161302.993 -137584.761 161047.51 -137437.258 161047.5 -137437.254 160774.961 -137324.364 160774.954 -137324.362 160774.952 -137324.361 160489.993 -137248.007 160441.113 -137241.571 160197.513 -137209.5 160197.506 -137209.5 159902.494 -137209.5 159902.486 -137209.5 159624.085 -137246.153 159610.007 -137248.007 159440.026 -137293.553 159325.048 -137324.361 159325.038 -137324.364 159052.499 -137437.254 159052.489 -137437.258 158797.006 -137584.761 158562.959 -137764.352 158562.952 -137764.358 158354.358 -137972.952 158354.352 -137972.959 158174.761 -138207.006 158027.258 -138462.489 158027.254 -138462.499 157914.364 -138735.038 157914.361 -138735.048 157838.008 -139020.004 157838.006 -139020.015 157799.5 -139312.486 143249.182 -139312.486 143213.311 -139040.017 143211.993 -139030.007 143135.639 -138745.048 143022.743 -138472.493 143016.97 -138462.493 142882.158 -138228.991 142875.239 -138217.007 142695.647 -137982.959 142695.641 -137982.952 142487.047 -137774.358 142487.04 -137774.352 142252.993 -137594.761 141997.51 -137447.258 141997.5 -137447.254 141724.961 -137334.364 141724.954 -137334.362 141724.952 -137334.361 141439.993 -137258.007 141391.113 -137251.571 141147.513 -137219.5 141147.506 -137219.5 140852.494 -137219.5 140852.486 -137219.5 140574.085 -137256.153 140560.007 -137258.007 140385.861 -137304.669 140275.048 -137334.361 140275.038 -137334.364 140002.499 -137447.254 140002.489 -137447.258 139747.006 -137594.761 139512.959 -137774.352 139512.952 -137774.358 139304.358 -137982.952 139304.352 -137982.959 139124.761 -138217.006 138977.258 -138472.489 138977.254 -138472.499 138864.364 -138745.038 138864.361 -138745.048 138790.685 -139020.015 138788.008 -139030.004 138788.006 -139030.015 138749.5 -139322.486 124199.182 -139322.486 124161.994 -139040.017 124161.994 -139040.015 124161.993 -139040.007 124085.639 -138755.048 123972.743 -138482.493 123972.741 -138482.489 123832.158 -138238.991 123825.239 -138227.007 123645.647 -137992.959 123645.641 -137992.952 123437.047 -137784.358 123437.04 -137784.352 123202.993 -137604.761 122947.51 -137457.258 122947.5 -137457.254 122674.961 -137344.364 122674.954 -137344.362 122674.952 -137344.361 122389.993 -137268.007 122341.113 -137261.571 122097.513 -137229.5 122097.506 -137229.5 121802.494 -137229.5 121802.486 -137229.5 121524.085 -137266.153 121510.007 -137268.007 121262.369 -137334.361 121225.048 -137344.361 121225.038 -137344.364 120952.499 -137457.254 120952.489 -137457.258 120697.006 -137604.761 120462.959 -137784.352 120462.952 -137784.358 120254.358 -137992.952 120254.352 -137992.959 120074.761 -138227.006 119927.258 -138482.489 119927.254 -138482.499 119814.364 -138755.038 119814.361 -138755.048 119740.685 -139030.015 119738.008 -139040.004 119738.006 -139040.015 119699.5 -139332.486 105950.5 -139332.486 105950.5 -136814.071 116540 -136814.071 116540 -137065.928 116579.397 -137314.669 116657.219 -137554.184 116771.557 -137778.583 116845.748 -137880.697 116845.748 -137880.698 117462.421 -137264.024 117475.359 -137295.258 117557.437 -137418.097 117661.903 -137522.563 117784.742 -137604.641 117815.974 -137617.577 117199.3 -138234.25 117301.416 -138308.442 117525.815 -138422.78 117765.33 -138500.602 118014.072 -138540 118265.928 -138540 118514.669 -138500.602 118754.184 -138422.78 118978.575 -138308.446 118978.581 -138308.442 119080.697 -138234.25 119080.698 -138234.25 118464.025 -137617.578 118495.258 -137604.641 118618.097 -137522.563 118722.563 -137418.097 118804.641 -137295.258 118817.577 -137264.025 119434.25 -137880.698 119434.25 -137880.697 119508.442 -137778.581 119508.446 -137778.575 119622.78 -137554.184 119700.602 -137314.669 119740 -137065.928 119740 -136814.07 119739.999 -136814.069 119738.415 -136804.071 135590 -136804.071 135590 -137055.928 135629.397 -137304.669 135707.219 -137544.184 135821.557 -137768.583 135895.748 -137870.697 135895.748 -137870.698 136512.421 -137254.024 136525.359 -137285.258 136607.437 -137408.097 136711.903 -137512.563 136834.742 -137594.641 136865.974 -137607.577 136249.3 -138224.25 136351.416 -138298.442 136575.815 -138412.78 136815.33 -138490.602 137064.072 -138530 137315.928 -138530 137564.669 -138490.602 137804.184 -138412.78 138028.575 -138298.446 138028.581 -138298.442 138130.697 -138224.25 138130.698 -138224.25 137514.025 -137607.578 137545.258 -137594.641 137668.097 -137512.563 137772.563 -137408.097 137854.641 -137285.258 137867.577 -137254.025 138484.25 -137870.698 138484.25 -137870.697 138558.442 -137768.581 138558.446 -137768.575 138672.78 -137544.184 138750.602 -137304.669 138790 -137055.928 138790 -136804.07 138789.999 -136804.069 138788.415 -136794.071 154640 -136794.071 154640 -137045.928 154679.397 -137294.669 154757.219 -137534.184 154871.557 -137758.583 154945.748 -137860.697 154945.748 -137860.698 155562.421 -137244.024 155575.359 -137275.258 155657.437 -137398.097 155761.903 -137502.563 155884.742 -137584.641 155915.974 -137597.577 155299.3 -138214.25 155401.416 -138288.442 155625.815 -138402.78 155865.33 -138480.602 156114.072 -138520 156365.928 -138520 156614.669 -138480.602 156854.184 -138402.78 157078.575 -138288.446 157078.581 -138288.442 157180.697 -138214.25 157180.698 -138214.25 156564.025 -137597.578 156595.258 -137584.641 156718.097 -137502.563 156822.563 -137398.097 156904.641 -137275.258 156917.577 -137244.025 157534.25 -137860.698 157534.25 -137860.697 157608.442 -137758.581 157608.446 -137758.575 157722.78 -137534.184 157800.602 -137294.669 157840 -137045.928 157840 -136794.071 157800.602 -136545.33 157722.78 -136305.815 157608.442 -136081.416 157534.25 -135979.301 157534.25 -135979.3 156917.577 -136595.973 156904.641 -136564.742 156822.563 -136441.903 156718.097 -136337.437 156595.258 -136255.359 156564.024 -136242.421 157180.698 -135625.748 157078.583 -135551.557 156854.184 -135437.219 156614.669 -135359.397 156365.928 -135320 156114.072 -135320 155865.33 -135359.397 155625.815 -135437.219 155401.413 -135551.559 155299.301 -135625.747 155299.3 -135625.748 155915.974 -136242.421 155884.742 -136255.359 155761.903 -136337.437 155657.437 -136441.903 155575.359 -136564.742 155562.421 -136595.974 154945.748 -135979.3 154945.747 -135979.301 154871.559 -136081.413 154757.219 -136305.815 154679.397 -136545.33 154640 -136794.071 138788.415 -136794.071 138750.602 -136555.33 138672.78 -136315.815 138558.442 -136091.416 138484.25 -135989.301 138484.25 -135989.3 137867.577 -136605.973 137854.641 -136574.742 137772.563 -136451.903 137668.097 -136347.437 137545.258 -136265.359 137514.024 -136252.421 138130.698 -135635.748 138028.583 -135561.557 137804.184 -135447.219 137564.669 -135369.397 137315.928 -135330 137064.072 -135330 136815.33 -135369.397 136575.815 -135447.219 136351.413 -135561.559 136249.301 -135635.747 136249.3 -135635.748 136865.974 -136252.421 136834.742 -136265.359 136711.903 -136347.437 136607.437 -136451.903 136525.359 -136574.742 136512.421 -136605.974 135895.748 -135989.3 135895.747 -135989.301 135821.559 -136091.413 135707.219 -136315.815 135629.397 -136555.33 135590 -136804.071 119738.415 -136804.071 119700.602 -136565.33 119622.78 -136325.815 119508.442 -136101.416 119434.25 -135999.301 119434.25 -135999.3 118817.577 -136615.973 118804.641 -136584.742 118722.563 -136461.903 118618.097 -136357.437 118495.258 -136275.359 118464.024 -136262.421 119080.698 -135645.748 118978.583 -135571.557 118754.184 -135457.219 118514.669 -135379.397 118265.928 -135340 118014.072 -135340 117765.33 -135379.397 117525.815 -135457.219 117301.413 -135571.559 117199.301 -135645.747 117199.3 -135645.748 117815.974 -136262.421 117784.742 -136275.359 117661.903 -136357.437 117557.437 -136461.903 117475.359 -136584.742 117462.421 -136615.974 116845.748 -135999.3 116845.747 -135999.301 116771.559 -136101.413 116657.219 -136325.815 116579.397 -136565.33 116540 -136814.071 105950.5 -136814.071 105950.5 -134274.038 122889.5 -134274.038 122889.5 -134525.961 122928.91 -134774.785 123006.76 -135014.383 123085.413 -135168.747 123116.036 -135228.848 123121.132 -135238.848 123269.201 -135442.649 123269.205 -135442.654 123447.345 -135620.794 123447.35 -135620.798 123623.623 -135748.867 123651.155 -135768.87 123794.184 -135841.747 123875.616 -135883.239 123875.618 -135883.239 123875.621 -135883.241 124115.215 -135961.09 124364.038 -136000.5 124364.039 -136000.5 124615.961 -136000.5 124615.962 -136000.5 124864.785 -135961.09 125104.379 -135883.241 125328.845 -135768.87 125532.656 -135620.793 125710.793 -135442.656 125858.87 -135238.845 125973.241 -135014.379 126051.09 -134774.785 126090.5 -134525.962 126090.5 -134274.038 126088.916 -134264.038 141939.5 -134264.038 141939.5 -134515.961 141978.91 -134764.785 142056.76 -135004.383 142135.413 -135158.747 142166.036 -135218.848 142171.132 -135228.848 142319.201 -135432.649 142319.205 -135432.654 142497.345 -135610.794 142497.35 -135610.798 142675.117 -135739.952 142701.155 -135758.87 142844.184 -135831.747 142925.616 -135873.239 142925.618 -135873.239 142925.621 -135873.241 143165.215 -135951.09 143414.038 -135990.5 143414.039 -135990.5 143665.961 -135990.5 143665.962 -135990.5 143914.785 -135951.09 144154.379 -135873.241 144378.845 -135758.87 144582.656 -135610.793 144760.793 -135432.656 144908.87 -135228.845 145023.241 -135004.379 145101.09 -134764.785 145140.5 -134515.962 145140.5 -134264.038 145138.916 -134254.038 160989.5 -134254.038 160989.5 -134505.961 161028.91 -134754.785 161106.76 -134994.383 161221.132 -135218.848 161369.201 -135422.649 161369.205 -135422.654 161547.345 -135600.794 161547.35 -135600.798 161609.219 -135645.748 161751.155 -135748.87 161894.184 -135821.747 161975.616 -135863.239 161975.618 -135863.239 161975.621 -135863.241 162215.215 -135941.09 162464.038 -135980.5 162464.039 -135980.5 162715.961 -135980.5 162715.962 -135980.5 162964.785 -135941.09 163204.379 -135863.241 163428.845 -135748.87 163632.656 -135600.793 163810.793 -135422.656 163958.87 -135218.845 164073.241 -134994.379 164151.09 -134754.785 164190.5 -134505.962 164190.5 -134254.038 164151.09 -134005.215 164073.241 -133765.621 164073.239 -133765.618 164073.239 -133765.616 163969.058 -133561.151 163958.87 -133541.155 163939.952 -133515.117 163810.798 -133337.35 163810.794 -133337.345 163632.654 -133159.205 163632.649 -133159.201 163428.848 -133011.132 163428.847 -133011.131 163428.845 -133011.13 163358.747 -132975.413 163204.383 -132896.76 162964.785 -132818.91 162842.236 -132799.5 162715.962 -132779.5 162464.038 -132779.5 162400.901 -132789.5 162215.214 -132818.91 161975.616 -132896.76 161751.151 -133011.132 161547.35 -133159.201 161547.345 -133159.205 161369.205 -133337.345 161369.201 -133337.35 161221.132 -133541.151 161106.76 -133765.616 161028.91 -134005.214 160989.5 -134254.038 145138.916 -134254.038 145101.09 -134015.215 145097.84 -134005.214 145026.49 -133785.621 145023.241 -133775.621 145023.239 -133775.618 145023.239 -133775.616 144981.747 -133694.184 144908.87 -133551.155 144768.063 -133357.35 144760.798 -133347.35 144760.794 -133347.345 144582.654 -133169.205 144582.649 -133169.201 144378.848 -133021.132 144378.847 -133021.131 144378.845 -133021.13 144308.747 -132985.413 144154.383 -132906.76 143914.785 -132828.91 143851.648 -132818.91 143665.962 -132789.5 143414.038 -132789.5 143350.901 -132799.5 143165.214 -132828.91 142925.616 -132906.76 142701.151 -133021.132 142497.35 -133169.201 142497.345 -133169.205 142319.205 -133347.345 142319.201 -133347.35 142171.132 -133551.151 142056.76 -133775.616 141978.91 -134015.214 141939.5 -134264.038 126088.916 -134264.038 126051.09 -134025.215 126047.84 -134015.214 125973.239 -133785.616 125931.747 -133704.184 125858.87 -133561.155 125839.952 -133535.117 125710.798 -133357.35 125710.794 -133357.345 125532.654 -133179.205 125532.649 -133179.201 125328.848 -133031.132 125328.847 -133031.131 125328.845 -133031.13 125258.747 -132995.413 125104.383 -132916.76 124864.785 -132838.91 124801.648 -132828.91 124615.962 -132799.5 124364.038 -132799.5 124241.489 -132818.91 124115.214 -132838.91 123875.616 -132916.76 123651.151 -133031.132 123447.35 -133179.201 123447.345 -133179.205 123269.205 -133357.345 123269.201 -133357.35 123121.132 -133561.151 123006.76 -133785.616 122928.91 -134025.214 122889.5 -134274.038 105950.5 -134274.038 105950.5 -120282.486 119689.5 -120282.486 119689.5 -120577.513 119721.571 -120821.113 119728.007 -120869.993 119801.682 -121144.952 119804.361 -121154.951 119804.364 -121154.961 119917.254 -121427.5 119917.258 -121427.51 120064.761 -121682.993 120244.352 -121917.04 120244.358 -121917.047 120452.952 -122125.641 120452.959 -122125.647 120687.006 -122305.238 120942.489 -122452.741 120942.49 -122452.741 120942.493 -122452.743 121215.048 -122565.639 121500.007 -122641.993 121792.494 -122680.5 121792.501 -122680.5 122087.499 -122680.5 122087.506 -122680.5 122379.993 -122641.993 122664.952 -122565.639 122937.507 -122452.743 123192.994 -122305.238 123427.042 -122125.646 123635.646 -121917.042 123815.238 -121682.994 123962.743 -121427.507 124075.639 -121154.952 124151.993 -120869.993 124190.5 -120577.506 124190.5 -120282.494 124189.183 -120272.494 124189.182 -120272.486 138739.5 -120272.486 138739.5 -120567.513 138740.817 -120577.513 138778.007 -120859.993 138851.682 -121134.952 138854.361 -121144.951 138854.364 -121144.961 138967.254 -121417.5 138967.258 -121417.51 139114.761 -121672.993 139294.352 -121907.04 139294.358 -121907.047 139502.952 -122115.641 139502.959 -122115.647 139737.006 -122295.238 139992.489 -122442.741 139992.49 -122442.741 139992.493 -122442.743 140265.048 -122555.639 140550.007 -122631.993 140842.494 -122670.5 140842.501 -122670.5 141137.499 -122670.5 141137.506 -122670.5 141429.993 -122631.993 141714.952 -122555.639 141987.507 -122442.743 142242.994 -122295.238 142477.042 -122115.646 142685.646 -121907.042 142865.238 -121672.994 143012.743 -121417.507 143125.639 -121144.952 143201.993 -120859.993 143240.5 -120567.506 143240.5 -120272.494 143201.993 -119980.007 143125.639 -119695.048 143012.743 -119422.493 143006.967 -119412.489 142865.238 -119167.006 142685.647 -118932.959 142685.641 -118932.952 142477.047 -118724.358 142477.04 -118724.352 142242.993 -118544.761 141987.51 -118397.258 141987.5 -118397.254 141714.961 -118284.364 141714.954 -118284.362 141714.952 -118284.361 141429.993 -118208.007 141381.113 -118201.571 141137.513 -118169.5 141137.506 -118169.5 140842.494 -118169.5 140842.486 -118169.5 140564.085 -118206.153 140550.007 -118208.007 140375.861 -118254.669 140265.048 -118284.361 140265.038 -118284.364 139992.499 -118397.254 139992.489 -118397.258 139737.006 -118544.761 139502.959 -118724.352 139502.952 -118724.358 139294.358 -118932.952 139294.352 -118932.959 139114.761 -119167.006 138967.258 -119422.489 138967.254 -119422.499 138854.364 -119695.038 138854.361 -119695.048 138780.685 -119970.015 138778.008 -119980.004 138778.006 -119980.015 138739.5 -120272.486 124189.182 -120272.486 124151.994 -119990.017 124151.994 -119990.015 124151.993 -119990.007 124075.639 -119705.048 123962.743 -119432.493 123962.741 -119432.489 123822.158 -119188.991 123815.239 -119177.007 123635.647 -118942.959 123635.641 -118942.952 123427.047 -118734.358 123427.04 -118734.352 123192.993 -118554.761 122937.51 -118407.258 122937.5 -118407.254 122664.961 -118294.364 122664.954 -118294.362 122664.952 -118294.361 122379.993 -118218.007 122331.113 -118211.571 122087.513 -118179.5 122087.506 -118179.5 121792.494 -118179.5 121792.486 -118179.5 121514.085 -118216.153 121500.007 -118218.007 121252.369 -118284.361 121215.048 -118294.361 121215.038 -118294.364 120942.499 -118407.254 120942.489 -118407.258 120687.006 -118554.761 120452.959 -118734.352 120452.952 -118734.358 120244.358 -118942.952 120244.352 -118942.959 120064.761 -119177.006 119917.258 -119432.489 119917.254 -119432.499 119804.364 -119705.038 119804.361 -119705.048 119730.685 -119980.015 119728.008 -119990.004 119728.006 -119990.015 119689.5 -120282.486 105950.5 -120282.486 105950.5 -117764.071 116530 -117764.071 116530 -118015.928 116569.397 -118264.669 116647.219 -118504.184 116761.557 -118728.583 116835.748 -118830.697 116835.748 -118830.698 117452.421 -118214.024 117465.359 -118245.258 117547.437 -118368.097 117651.903 -118472.563 117774.742 -118554.641 117805.974 -118567.577 117189.3 -119184.25 117291.416 -119258.442 117515.815 -119372.78 117755.33 -119450.602 118004.072 -119490 118255.928 -119490 118504.669 -119450.602 118744.184 -119372.78 118968.575 -119258.446 118968.581 -119258.442 119070.697 -119184.25 119070.698 -119184.25 118454.025 -118567.578 118485.258 -118554.641 118608.097 -118472.563 118712.563 -118368.097 118794.641 -118245.258 118807.577 -118214.025 119424.25 -118830.698 119424.25 -118830.697 119498.442 -118728.581 119498.446 -118728.575 119612.78 -118504.184 119690.602 -118264.669 119730 -118015.928 119730 -117764.07 119729.999 -117764.069 119728.415 -117754.071 135580 -117754.071 135580 -118005.928 135619.397 -118254.669 135697.219 -118494.184 135811.557 -118718.583 135885.748 -118820.697 135885.748 -118820.698 136502.421 -118204.024 136515.359 -118235.258 136597.437 -118358.097 136701.903 -118462.563 136824.742 -118544.641 136855.974 -118557.577 136239.3 -119174.25 136341.416 -119248.442 136565.815 -119362.78 136805.33 -119440.602 137054.072 -119480 137305.928 -119480 137554.669 -119440.602 137794.184 -119362.78 138018.575 -119248.446 138018.581 -119248.442 138120.697 -119174.25 138120.698 -119174.25 137504.025 -118557.578 137535.258 -118544.641 137658.097 -118462.563 137762.563 -118358.097 137844.641 -118235.258 137857.577 -118204.025 138474.25 -118820.698 138474.25 -118820.697 138548.442 -118718.581 138548.446 -118718.575 138662.78 -118494.184 138740.602 -118254.669 138780 -118005.928 138780 -117754.071 138740.602 -117505.33 138662.78 -117265.815 138548.442 -117041.416 138474.25 -116939.301 138474.25 -116939.3 137857.577 -117555.973 137844.641 -117524.742 137762.563 -117401.903 137658.097 -117297.437 137535.258 -117215.359 137504.024 -117202.421 138120.698 -116585.748 138018.583 -116511.557 137794.184 -116397.219 137554.669 -116319.397 137305.928 -116280 137054.072 -116280 136805.33 -116319.397 136565.815 -116397.219 136341.413 -116511.559 136239.301 -116585.747 136239.3 -116585.748 136855.974 -117202.421 136824.742 -117215.359 136701.903 -117297.437 136597.437 -117401.903 136515.359 -117524.742 136502.421 -117555.974 135885.748 -116939.3 135885.747 -116939.301 135811.559 -117041.413 135697.219 -117265.815 135619.397 -117505.33 135580 -117754.071 119728.415 -117754.071 119690.602 -117515.33 119612.78 -117275.815 119498.442 -117051.416 119424.25 -116949.301 119424.25 -116949.3 118807.577 -117565.973 118794.641 -117534.742 118712.563 -117411.903 118608.097 -117307.437 118485.258 -117225.359 118454.024 -117212.421 119070.698 -116595.748 118968.583 -116521.557 118744.184 -116407.219 118504.669 -116329.397 118255.928 -116290 118004.072 -116290 117755.33 -116329.397 117515.815 -116407.219 117291.413 -116521.559 117189.301 -116595.747 117189.3 -116595.748 117805.974 -117212.421 117774.742 -117225.359 117651.903 -117307.437 117547.437 -117411.903 117465.359 -117534.742 117452.421 -117565.974 116835.748 -116949.3 116835.747 -116949.301 116761.559 -117051.413 116647.219 -117275.815 116569.397 -117515.33 116530 -117764.071 105950.5 -117764.071 105950.5 -115224.038 122879.5 -115224.038 122879.5 -115475.961 122918.91 -115724.785 122996.76 -115964.383 123075.413 -116118.747 123106.036 -116178.848 123111.132 -116188.848 123259.201 -116392.649 123259.205 -116392.654 123437.345 -116570.794 123437.35 -116570.798 123542.972 -116647.536 123641.155 -116718.87 123784.184 -116791.747 123865.616 -116833.239 123865.618 -116833.239 123865.621 -116833.241 124105.215 -116911.09 124354.038 -116950.5 124354.039 -116950.5 124605.961 -116950.5 124605.962 -116950.5 124854.785 -116911.09 125094.379 -116833.241 125318.845 -116718.87 125522.656 -116570.793 125700.793 -116392.656 125848.87 -116188.845 125963.241 -115964.379 126041.09 -115724.785 126080.5 -115475.962 126080.5 -115224.038 126078.916 -115214.038 141929.5 -115214.038 141929.5 -115465.961 141968.91 -115714.785 142046.76 -115954.383 142125.413 -116108.747 142156.036 -116168.848 142161.132 -116178.848 142309.201 -116382.649 142309.205 -116382.654 142487.345 -116560.794 142487.35 -116560.798 142665.117 -116689.952 142691.155 -116708.87 142807.428 -116768.114 142915.616 -116823.239 142915.618 -116823.239 142915.621 -116823.241 143155.215 -116901.09 143404.038 -116940.5 143404.039 -116940.5 143655.961 -116940.5 143655.962 -116940.5 143904.785 -116901.09 144144.379 -116823.241 144368.845 -116708.87 144572.656 -116560.793 144750.793 -116382.656 144898.87 -116178.845 145013.241 -115954.379 145091.09 -115714.785 145130.5 -115465.962 145130.5 -115214.038 145091.09 -114965.215 145013.241 -114725.621 145013.239 -114725.618 145013.239 -114725.616 144971.747 -114644.184 144898.87 -114501.155 144758.063 -114307.35 144750.798 -114297.35 144750.794 -114297.345 144572.654 -114119.205 144572.649 -114119.201 144368.848 -113971.132 144368.847 -113971.131 144368.845 -113971.13 144298.747 -113935.413 144144.383 -113856.76 143904.785 -113778.91 143841.648 -113768.91 143655.962 -113739.5 143404.038 -113739.5 143340.901 -113749.5 143155.214 -113778.91 142915.616 -113856.76 142691.151 -113971.132 142487.35 -114119.201 142487.345 -114119.205 142309.205 -114297.345 142309.201 -114297.35 142161.132 -114501.151 142046.76 -114725.616 141968.91 -114965.214 141929.5 -115214.038 126078.916 -115214.038 126041.09 -114975.215 126037.84 -114965.214 125963.239 -114735.616 125921.747 -114654.184 125848.87 -114511.155 125829.952 -114485.117 125700.798 -114307.35 125700.794 -114307.345 125522.654 -114129.205 125522.649 -114129.201 125318.848 -113981.132 125318.847 -113981.131 125318.845 -113981.13 125248.747 -113945.413 125094.383 -113866.76 124854.785 -113788.91 124791.648 -113778.91 124605.962 -113749.5 124354.038 -113749.5 124231.489 -113768.91 124105.214 -113788.91 123865.616 -113866.76 123641.151 -113981.132 123437.35 -114129.201 123437.345 -114129.205 123259.205 -114307.345 123259.201 -114307.35 123111.132 -114511.151 122996.76 -114735.616 122918.91 -114975.214 122879.5 -115224.038 105950.5 -115224.038 105950.5 -93537.997 108778.498 -93537.997 108778.499 -93538 108819.423 -93690.728 108845.961 -93736.693 108845.961 -93736.694 108898.475 -93827.652 108898.481 -93827.66 109017.349 -93946.528 109017.355 -93946.533 121885.196 -106814.374 121885.206 -106814.385 121889.536 -106818.715 121889.537 -106818.716 122001.341 -106930.52 122052.902 -106960.288 122088.152 -106980.639 122088.154 -106980.641 122126.208 -107002.611 122138.272 -107009.577 122291 -107050.501 122291.003 -107050.501 122456.71 -107050.501 122456.726 -107050.5 148040.234 -107050.5 148107.273 -107070.185 148109.125 -107071.398 148240.814 -107159.39 148240.827 -107159.397 148386.498 -107219.735 148386.503 -107219.737 148541.153 -107250.499 148541.156 -107250.5 148541.158 -107250.5 148698.844 -107250.5 148698.845 -107250.499 148853.497 -107219.737 148999.179 -107159.394 149130.289 -107071.789 149241.789 -106960.289 149329.394 -106829.179 149389.737 -106683.497 149420.5 -106528.842 149420.5 -106371.158 149420.5 -106371.155 149420.499 -106371.153 149389.738 -106216.51 149389.737 -106216.503 149389.735 -106216.498 149329.397 -106070.827 149329.39 -106070.814 149241.789 -105939.711 149241.786 -105939.707 149130.292 -105828.213 149130.288 -105828.21 148999.185 -105740.609 148999.172 -105740.602 148853.501 -105680.264 148853.489 -105680.261 148698.845 -105649.5 148698.842 -105649.5 148541.158 -105649.5 148541.155 -105649.5 148386.51 -105680.261 148386.498 -105680.264 148240.827 -105740.602 148240.814 -105740.609 148109.125 -105828.602 148042.447 -105849.48 148040.234 -105849.5 122670.154 -105849.5 122603.115 -105829.815 122582.473 -105813.181 118001.778 -101232.486 119679.5 -101232.486 119679.5 -101527.513 119711.571 -101771.113 119718.007 -101819.993 119791.682 -102094.952 119794.361 -102104.951 119794.364 -102104.961 119907.254 -102377.5 119907.258 -102377.51 120054.761 -102632.993 120234.352 -102867.04 120234.358 -102867.047 120442.952 -103075.641 120442.959 -103075.647 120677.006 -103255.238 120932.489 -103402.741 120932.49 -103402.741 120932.493 -103402.743 121205.048 -103515.639 121490.007 -103591.993 121782.494 -103630.5 121782.501 -103630.5 122077.499 -103630.5 122077.506 -103630.5 122369.993 -103591.993 122654.952 -103515.639 122927.507 -103402.743 123182.994 -103255.238 123417.042 -103075.646 123625.646 -102867.042 123805.238 -102632.994 123952.743 -102377.507 124065.639 -102104.952 124141.993 -101819.993 124180.5 -101527.506 124180.5 -101232.494 124179.183 -101222.494 124179.182 -101222.486 138729.5 -101222.486 138729.5 -101517.513 138730.817 -101527.513 138768.007 -101809.993 138841.682 -102084.952 138844.361 -102094.951 138844.364 -102094.961 138957.254 -102367.5 138957.258 -102367.51 139104.761 -102622.993 139284.352 -102857.04 139284.358 -102857.047 139492.952 -103065.641 139492.959 -103065.647 139727.006 -103245.238 139982.489 -103392.741 139982.49 -103392.741 139982.493 -103392.743 140255.048 -103505.639 140540.007 -103581.993 140832.494 -103620.5 140832.501 -103620.5 141127.499 -103620.5 141127.506 -103620.5 141419.993 -103581.993 141704.952 -103505.639 141977.507 -103392.743 142232.994 -103245.238 142467.042 -103065.646 142675.646 -102857.042 142855.238 -102622.994 143002.743 -102367.507 143115.639 -102094.952 143191.993 -101809.993 143230.5 -101517.506 143230.5 -101222.494 143191.993 -100930.007 143115.639 -100645.048 143002.743 -100372.493 142996.967 -100362.489 142855.238 -100117.006 142675.647 -99882.959 142675.641 -99882.952 142467.047 -99674.358 142467.04 -99674.352 142232.993 -99494.761 141977.51 -99347.258 141977.5 -99347.254 141704.961 -99234.364 141704.954 -99234.362 141704.952 -99234.361 141419.993 -99158.007 141371.113 -99151.571 141127.513 -99119.5 141127.506 -99119.5 140832.494 -99119.5 140832.486 -99119.5 140554.085 -99156.153 140540.007 -99158.007 140365.861 -99204.669 140255.048 -99234.361 140255.038 -99234.364 139982.499 -99347.254 139982.489 -99347.258 139727.006 -99494.761 139492.959 -99674.352 139492.952 -99674.358 139284.358 -99882.952 139284.352 -99882.959 139104.761 -100117.006 138957.258 -100372.489 138957.254 -100372.499 138844.364 -100645.038 138844.361 -100645.048 138770.685 -100920.015 138768.008 -100930.004 138768.006 -100930.015 138729.5 -101222.486 124179.182 -101222.486 124141.994 -100940.017 124141.994 -100940.015 124141.993 -100940.007 124065.639 -100655.048 123952.743 -100382.493 123952.741 -100382.489 123812.158 -100138.991 123805.239 -100127.007 123625.647 -99892.959 123625.641 -99892.952 123417.047 -99684.358 123417.04 -99684.352 123182.993 -99504.761 122927.51 -99357.258 122927.5 -99357.254 122654.961 -99244.364 122654.954 -99244.362 122654.952 -99244.361 122369.993 -99168.007 122321.113 -99161.571 122077.513 -99129.5 122077.506 -99129.5 121782.494 -99129.5 121782.486 -99129.5 121504.085 -99166.153 121490.007 -99168.007 121242.369 -99234.361 121205.048 -99244.361 121205.038 -99244.364 120932.499 -99357.254 120932.489 -99357.258 120677.006 -99504.761 120442.959 -99684.352 120442.952 -99684.358 120234.358 -99892.952 120234.352 -99892.959 120054.761 -100127.006 119907.258 -100382.489 119907.254 -100382.499 119794.364 -100655.038 119794.361 -100655.048 119720.685 -100930.015 119718.008 -100940.004 119718.006 -100940.015 119679.5 -101232.486 118001.778 -101232.486 117215.855 -100446.563 117182.37 -100385.24 117187.354 -100315.548 117229.226 -100259.615 117294.69 -100235.198 117359.831 -100248.397 117505.815 -100322.78 117745.33 -100400.602 117994.072 -100440 118245.928 -100440 118494.669 -100400.602 118734.184 -100322.78 118958.575 -100208.446 118958.581 -100208.442 119060.697 -100134.25 119060.698 -100134.25 118444.025 -99517.578 118475.258 -99504.641 118598.097 -99422.563 118702.563 -99318.097 118784.641 -99195.258 118797.577 -99164.025 119414.25 -99780.698 119414.25 -99780.697 119488.442 -99678.581 119488.446 -99678.575 119602.78 -99454.184 119680.602 -99214.669 119720 -98965.928 119720 -98714.07 119719.999 -98714.069 119718.415 -98704.071 135570 -98704.071 135570 -98955.928 135609.397 -99204.669 135687.219 -99444.184 135801.557 -99668.583 135875.748 -99770.697 135875.748 -99770.698 136492.421 -99154.024 136505.359 -99185.258 136587.437 -99308.097 136691.903 -99412.563 136814.742 -99494.641 136845.974 -99507.577 136229.3 -100124.25 136331.416 -100198.442 136555.815 -100312.78 136795.33 -100390.602 137044.072 -100430 137295.928 -100430 137544.669 -100390.602 137784.184 -100312.78 138008.575 -100198.446 138008.581 -100198.442 138110.697 -100124.25 138110.698 -100124.25 137494.025 -99507.578 137525.258 -99494.641 137648.097 -99412.563 137752.563 -99308.097 137834.641 -99185.258 137847.578 -99154.025 138464.25 -99770.698 138464.25 -99770.697 138538.442 -99668.581 138538.446 -99668.575 138652.78 -99444.184 138730.602 -99204.669 138770 -98955.928 138770 -98704.071 138730.602 -98455.33 138652.78 -98215.815 138538.442 -97991.416 138464.25 -97889.301 138464.25 -97889.3 137847.577 -98505.973 137834.641 -98474.742 137752.563 -98351.903 137648.097 -98247.437 137525.258 -98165.359 137494.024 -98152.421 138110.698 -97535.748 138008.583 -97461.557 137784.184 -97347.219 137544.669 -97269.397 137295.928 -97230 137044.072 -97230 136795.33 -97269.397 136555.815 -97347.219 136331.413 -97461.559 136229.301 -97535.747 136229.3 -97535.748 136845.974 -98152.421 136814.742 -98165.359 136691.903 -98247.437 136587.437 -98351.903 136505.359 -98474.742 136492.421 -98505.974 135875.748 -97889.3 135875.747 -97889.301 135801.559 -97991.413 135687.219 -98215.815 135609.397 -98455.33 135570 -98704.071 119718.415 -98704.071 119680.602 -98465.33 119602.78 -98225.815 119488.442 -98001.416 119414.25 -97899.301 119414.25 -97899.3 118797.577 -98515.973 118784.641 -98484.742 118702.563 -98361.903 118598.097 -98257.437 118475.258 -98175.359 118444.024 -98162.421 119060.698 -97545.748 118958.583 -97471.557 118734.184 -97357.219 118494.669 -97279.397 118245.928 -97240 117994.072 -97240 117745.33 -97279.397 117505.815 -97357.219 117281.413 -97471.559 117179.301 -97545.747 117179.3 -97545.748 117795.974 -98162.421 117764.742 -98175.359 117641.903 -98257.437 117537.437 -98361.903 117455.359 -98484.742 117442.421 -98515.974 116825.748 -97899.3 116825.747 -97899.301 116751.559 -98001.413 116637.219 -98225.815 116559.397 -98465.33 116520 -98714.071 116520 -98965.928 116559.397 -99214.669 116637.219 -99454.184 116711.602 -99600.168 116724.498 -99668.837 116698.222 -99733.578 116641.115 -99773.835 116571.31 -99776.827 116513.436 -99744.144 112943.33 -96174.038 122869.5 -96174.038 122869.5 -96425.962 122904.704 -96648.228 122908.91 -96674.785 122986.76 -96914.383 123065.413 -97068.747 123096.036 -97128.848 123101.132 -97138.848 123249.201 -97342.649 123249.205 -97342.654 123427.345 -97520.794 123427.35 -97520.798 123603.623 -97648.867 123631.155 -97668.87 123774.184 -97741.747 123855.616 -97783.239 123855.618 -97783.239 123855.621 -97783.241 124095.215 -97861.09 124344.038 -97900.5 124344.039 -97900.5 124595.961 -97900.5 124595.962 -97900.5 124844.785 -97861.09 125084.379 -97783.241 125308.845 -97668.87 125512.656 -97520.793 125690.793 -97342.656 125838.87 -97138.845 125953.241 -96914.379 126031.09 -96674.785 126070.5 -96425.962 126070.5 -96174.038 126031.09 -95925.215 125953.241 -95685.621 125953.239 -95685.618 125953.239 -95685.616 125911.747 -95604.184 125838.87 -95461.155 125819.952 -95435.117 125690.798 -95257.35 125690.794 -95257.345 125512.654 -95079.205 125512.649 -95079.201 125308.848 -94931.132 125308.847 -94931.131 125308.845 -94931.13 125238.747 -94895.413 125084.383 -94816.76 124844.785 -94738.91 124781.648 -94728.91 124595.962 -94699.5 124344.038 -94699.5 124221.489 -94718.91 124095.214 -94738.91 123855.616 -94816.76 123631.151 -94931.132 123427.35 -95079.201 123427.345 -95079.205 123249.205 -95257.345 123249.201 -95257.35 123101.132 -95461.151 122986.76 -95685.616 122912.159 -95915.215 122908.91 -95925.215 122869.5 -96174.038 112943.33 -96174.038 110015.819 -93246.527 109982.334 -93185.204 109979.5 -93158.846 109979.5 -85211.643 109999.185 -85144.604 110051.989 -85098.849 110121.147 -85088.905 110165.498 -85104.255 110293.303 -85178.043 110293.305 -85178.043 110293.309 -85178.046 110482.357 -85256.352 110535.581 -85278.398 110788.884 -85346.27 111048.88 -85380.5 111048.887 -85380.5 111311.113 -85380.5 111311.12 -85380.5 111571.116 -85346.27 111824.419 -85278.398 112034.069 -85191.557 112103.537 -85184.089 112166.017 -85215.364 112169.202 -85218.438 112612.284 -85661.52 112612.286 -85661.521 112612.29 -85661.524 112749.209 -85740.573 112749.216 -85740.577 112901.943 -85781.501 112901.945 -85781.501 113067.654 -85781.501 113067.67 -85781.5 127926.171 -85781.5 127926.187 -85781.501 127933.783 -85781.501 128091.894 -85781.501 128091.897 -85781.501 128244.625 -85740.577 128294.744 -85711.639 128381.556 -85661.52 128493.36 -85549.716 128493.36 -85549.714 128503.568 -85539.507 128503.569 -85539.504 128643.321 -85399.752 128704.642 -85366.269 128774.334 -85371.253 128830.267 -85413.125 128854.684 -85478.589 128855 -85487.435 128855 -85774.97 128855.001 -85774.987 128865.494 -85877.697 128920.641 -86044.119 128920.643 -86044.124 129012.684 -86193.345 129136.654 -86317.315 129285.875 -86409.356 129285.88 -86409.358 129452.302 -86464.505 129452.309 -86464.506 129555.019 -86474.999 130029.999 -86474.999 130030 -86474.998 130030 -85396.409 130115.956 -85446.037 130224.048 -85475 130335.952 -85475 130444.044 -85446.037 130530 -85396.409 130530 -86474.999 131004.972 -86474.999 131004.986 -86474.998 131107.697 -86464.505 131274.119 -86409.358 131274.124 -86409.356 131423.345 -86317.315 131547.315 -86193.345 131639.356 -86044.124 131639.358 -86044.119 131694.505 -85877.697 131694.506 -85877.69 131704.999 -85774.986 131705 -85774.973 131705 -85300 130626.41 -85300 130676.037 -85214.044 130705 -85105.952 130705 -84994.048 130676.037 -84885.956 130626.41 -84800 131704.999 -84800 131704.999 -84548.5 131724.684 -84481.461 131777.488 -84435.706 131828.999 -84424.5 133013.706 -84424.5 133080.745 -84444.185 133126.5 -84496.989 133136.444 -84566.147 133131.637 -84586.819 133089.599 -84716.194 133054.5 -84937.805 133054.5 -85162.194 133089.599 -85383.805 133158.938 -85597.206 133217.247 -85711.642 133260.318 -85796.174 133260.805 -85797.128 133392.683 -85978.644 133392.687 -85978.649 133551.35 -86137.312 133551.355 -86137.316 133709.683 -86252.347 133732.875 -86269.197 133827.312 -86317.315 133932.793 -86371.061 133932.795 -86371.061 133932.798 -86371.063 133989.686 -86389.547 134146.194 -86440.4 134367.806 -86475.5 134367.811 -86475.5 134592.194 -86475.5 134692.923 -86459.545 134813.805 -86440.4 134898.046 -86413.027 134967.884 -86411.033 135024.043 -86443.278 143126.26 -94545.495 143159.745 -94606.818 143154.761 -94676.51 143112.889 -94732.443 143076.898 -94751.107 142905.616 -94806.76 142681.151 -94921.132 142477.35 -95069.201 142477.345 -95069.205 142299.205 -95247.345 142299.201 -95247.35 142151.132 -95451.151 142036.76 -95675.616 141958.91 -95915.214 141919.5 -96164.038 141919.5 -96415.961 141958.91 -96664.785 142036.76 -96904.383 142115.413 -97058.747 142146.036 -97118.848 142151.132 -97128.848 142299.201 -97332.649 142299.205 -97332.654 142477.345 -97510.794 142477.35 -97510.798 142655.117 -97639.952 142681.155 -97658.87 142824.184 -97731.747 142905.616 -97773.239 142905.618 -97773.239 142905.621 -97773.241 143145.215 -97851.09 143394.038 -97890.5 143394.039 -97890.5 143645.961 -97890.5 143645.962 -97890.5 143894.785 -97851.09 144134.379 -97773.241 144358.845 -97658.87 144562.656 -97510.793 144740.793 -97332.656 144888.87 -97128.845 145003.241 -96904.379 145058.892 -96733.1 145098.329 -96675.426 145162.688 -96648.228 145231.534 -96660.143 145264.504 -96683.739 150093.181 -101512.416 150126.666 -101573.739 150129.5 -101600.097 150129.5 -130929.903 150109.815 -130996.942 150093.181 -131017.584 149897.584 -131213.181 149836.261 -131246.666 149809.903 -131249.5 149199.766 -131249.5 149132.727 -131229.815 149130.875 -131228.602 148999.185 -131140.609 148999.172 -131140.602 148853.501 -131080.264 148853.489 -131080.261 148698.845 -131049.5 148698.842 -131049.5 148541.158 -131049.5 148541.155 -131049.5 148386.51 -131080.261 148386.498 -131080.264 148240.827 -131140.602 148240.814 -131140.609 148109.711 -131228.21 148109.707 -131228.213 147998.213 -131339.707 147998.21 -131339.711 147910.609 -131470.814 147910.602 -131470.827 147850.264 -131616.498 147850.261 -131616.51 147819.5 -131771.153 147819.5 -131928.846 147850.261 -132083.489 147850.264 -132083.501 147910.602 -132229.172 147910.609 -132229.185 147998.21 -132360.288 147998.213 -132360.292 148109.707 -132471.786 148109.711 -132471.789 148240.814 -132559.39 148240.827 -132559.397 148386.498 -132619.735 148386.503 -132619.737 148541.153 -132650.499 148541.156 -132650.5 148541.158 -132650.5 148698.844 -132650.5 148698.845 -132650.499 148853.497 -132619.737 148999.179 -132559.394 148999.185 -132559.39 149130.875 -132471.398 149197.553 -132450.52 149199.766 -132450.5 150023.331 -132450.5 150023.347 -132450.501 150030.943 -132450.501 150189.054 -132450.501 150189.057 -132450.501 150341.785 -132409.577 150391.904 -132380.639 150478.716 -132330.52 150590.52 -132218.716 150590.52 -132218.714 150600.728 -132208.507 150600.73 -132208.504 151088.506 -131720.728 151088.511 -131720.724 151098.714 -131710.52 151098.716 -131710.52 151210.52 -131598.716 151289.577 -131461.784 151330.5 -131309.057 151330.5 -120262.486 157789.5 -120262.486 157789.5 -120557.513 157821.571 -120801.113 157828.007 -120849.993 157904.361 -121134.951 157904.364 -121134.961 158017.254 -121407.5 158017.258 -121407.51 158164.761 -121662.993 158344.352 -121897.04 158344.358 -121897.047 158552.952 -122105.641 158552.959 -122105.647 158787.006 -122285.238 159042.489 -122432.741 159042.49 -122432.741 159042.493 -122432.743 159315.048 -122545.639 159600.007 -122621.993 159892.494 -122660.5 159892.501 -122660.5 160187.499 -122660.5 160187.506 -122660.5 160479.993 -122621.993 160764.952 -122545.639 161037.507 -122432.743 161292.994 -122285.238 161527.042 -122105.646 161735.646 -121897.042 161915.238 -121662.994 162062.743 -121407.507 162175.639 -121134.952 162251.993 -120849.993 162290.5 -120557.506 162290.5 -120262.494 162251.993 -119970.007 162175.639 -119685.048 162062.743 -119412.493 162034.041 -119362.78 161915.238 -119157.006 161735.647 -118922.959 161735.641 -118922.952 161527.047 -118714.358 161527.04 -118714.352 161292.993 -118534.761 161037.51 -118387.258 161037.5 -118387.254 160764.961 -118274.364 160764.954 -118274.362 160764.952 -118274.361 160479.993 -118198.007 160431.113 -118191.571 160187.513 -118159.5 160187.506 -118159.5 159892.494 -118159.5 159892.486 -118159.5 159614.085 -118196.153 159600.007 -118198.007 159430.026 -118243.553 159315.048 -118274.361 159315.038 -118274.364 159042.499 -118387.254 159042.489 -118387.258 158787.006 -118534.761 158552.959 -118714.352 158552.952 -118714.358 158344.358 -118922.952 158344.352 -118922.959 158164.761 -119157.006 158017.258 -119412.489 158017.254 -119412.499 157904.364 -119685.038 157904.361 -119685.048 157828.008 -119970.004 157828.006 -119970.015 157789.5 -120262.486 151330.5 -120262.486 151330.5 -117744.071 154630 -117744.071 154630 -117995.928 154669.397 -118244.669 154747.219 -118484.184 154861.557 -118708.583 154935.748 -118810.697 154935.748 -118810.698 155552.421 -118194.024 155565.359 -118225.258 155647.437 -118348.097 155751.903 -118452.563 155874.742 -118534.641 155905.974 -118547.577 155289.3 -119164.25 155391.416 -119238.442 155615.815 -119352.78 155855.33 -119430.602 156104.072 -119470 156355.928 -119470 156604.669 -119430.602 156844.184 -119352.78 157068.575 -119238.446 157068.581 -119238.442 157170.697 -119164.25 157170.698 -119164.25 156554.025 -118547.578 156585.258 -118534.641 156708.097 -118452.563 156812.563 -118348.097 156894.641 -118225.258 156907.578 -118194.025 157524.25 -118810.698 157524.25 -118810.697 157598.442 -118708.581 157598.446 -118708.575 157712.78 -118484.184 157790.602 -118244.669 157830 -117995.928 157830 -117744.071 157790.602 -117495.33 157712.78 -117255.815 157598.442 -117031.416 157524.25 -116929.301 157524.25 -116929.3 156907.577 -117545.973 156894.641 -117514.742 156812.563 -117391.903 156708.097 -117287.437 156585.258 -117205.359 156554.024 -117192.421 157170.698 -116575.748 157068.583 -116501.557 156844.184 -116387.219 156604.669 -116309.397 156355.928 -116270 156104.072 -116270 155855.33 -116309.397 155615.815 -116387.219 155391.413 -116501.559 155289.301 -116575.747 155289.3 -116575.748 155905.974 -117192.421 155874.742 -117205.359 155751.903 -117287.437 155647.437 -117391.903 155565.359 -117514.742 155552.421 -117545.974 154935.748 -116929.3 154935.747 -116929.301 154861.559 -117031.413 154747.219 -117255.815 154669.397 -117495.33 154630 -117744.071 151330.5 -117744.071 151330.5 -101220.943 151289.577 -101068.216 151215.561 -100940.015 151210.524 -100931.29 151210.521 -100931.286 151210.52 -100931.284 151098.716 -100819.48 151098.715 -100819.479 151094.385 -100815.149 151094.374 -100815.139 135873.278 -85594.043 135839.793 -85532.72 135843.027 -85468.046 135870.4 -85383.805 135890.586 -85256.352 135905.5 -85162.194 135905.5 -84937.805 135870.4 -84716.194 135828.363 -84586.819 135826.368 -84516.977 135862.448 -84457.144 135925.149 -84426.316 135946.294 -84424.5 137213.706 -84424.5 137280.745 -84444.185 137326.5 -84496.989 137336.444 -84566.147 137331.637 -84586.819 137289.599 -84716.194 137254.5 -84937.805 137254.5 -85162.194 137289.599 -85383.805 137358.938 -85597.206 137417.247 -85711.642 137460.318 -85796.174 137460.805 -85797.128 137592.683 -85978.644 137592.687 -85978.649 137751.35 -86137.312 137751.355 -86137.316 137909.683 -86252.347 137932.875 -86269.197 138027.312 -86317.315 138132.793 -86371.061 138132.795 -86371.061 138132.798 -86371.063 138189.686 -86389.547 138346.194 -86440.4 138567.806 -86475.5 138567.811 -86475.5 138792.194 -86475.5 138892.923 -86459.545 139013.805 -86440.4 139098.046 -86413.027 139167.884 -86411.033 139224.043 -86443.278 163453.181 -110672.416 163486.666 -110733.739 163489.5 -110760.097 163489.5 -113794.78 163469.815 -113861.819 163417.011 -113907.574 163347.853 -113917.518 163309.206 -113905.265 163194.386 -113846.761 162954.785 -113768.91 162832.236 -113749.5 162705.962 -113729.5 162454.038 -113729.5 162390.901 -113739.5 162205.214 -113768.91 161965.616 -113846.76 161741.151 -113961.132 161537.35 -114109.201 161537.345 -114109.205 161359.205 -114287.345 161359.201 -114287.35 161211.132 -114491.151 161096.76 -114715.616 161018.91 -114955.214 160979.5 -115204.038 160979.5 -115455.961 161018.91 -115704.785 161096.76 -115944.383 161211.132 -116168.848 161359.201 -116372.649 161359.205 -116372.654 161537.345 -116550.794 161537.35 -116550.798 161715.117 -116679.952 161741.155 -116698.87 161877.054 -116768.114 161965.616 -116813.239 161965.618 -116813.239 161965.621 -116813.241 162205.215 -116891.09 162454.038 -116930.5 162454.039 -116930.5 162705.961 -116930.5 162705.962 -116930.5 162954.785 -116891.09 163194.379 -116813.241 163309.205 -116754.733 163377.874 -116741.838 163442.615 -116768.114 163482.872 -116825.221 163489.5 -116865.219 163489.5 -129453.33 163489.499 -129453.348 163489.499 -129619.054 163489.498 -129619.054 163530.423 -129771.785 163559.358 -129821.9 163559.359 -129821.904 163559.36 -129821.904 163609.479 -129908.714 163609.481 -129908.717 163728.349 -130027.585 163728.355 -130027.59 165565.425 -131864.66 165598.91 -131925.983 165599.361 -131928.149 165630.261 -132083.491 165630.264 -132083.501 165690.602 -132229.172 165690.609 -132229.185 165778.21 -132360.288 165778.213 -132360.292 165889.707 -132471.786 165889.711 -132471.789 166020.814 -132559.39 166020.827 -132559.397 166166.498 -132619.735 166166.503 -132619.737 166321.153 -132650.499 166321.156 -132650.5 166321.158 -132650.5 166478.844 -132650.5 166478.845 -132650.499 166633.497 -132619.737 166779.179 -132559.394 166910.289 -132471.789 167021.789 -132360.289 167109.394 -132229.179 167169.737 -132083.497 167200.5 -131928.842 167200.5 -131771.158 167200.5 -131771.155 167200.499 -131771.153 167169.737 -131616.503 167162.37 -131598.717 167109.397 -131470.827 167109.39 -131470.814 167021.789 -131339.711 167021.786 -131339.707 166910.292 -131228.213 166910.288 -131228.21 166779.185 -131140.609 166779.172 -131140.602 166633.501 -131080.264 166633.491 -131080.261 166478.149 -131049.361 166416.238 -131016.976 166414.66 -131015.425 164726.819 -129327.584 164693.334 -129266.261 164690.5 -129239.903 164690.5 -110549.06 164690.501 -110549.047 164690.501 -110380.944 164649.576 -110228.214 164649.573 -110228.209 164570.524 -110091.29 164570.518 -110091.282 160219.838 -105740.602 155691.721 -101212.486 157779.5 -101212.486 157779.5 -101507.513 157811.571 -101751.113 157818.007 -101799.993 157894.361 -102084.951 157894.364 -102084.961 158007.254 -102357.5 158007.258 -102357.51 158154.761 -102612.993 158334.352 -102847.04 158334.358 -102847.047 158542.952 -103055.641 158542.959 -103055.647 158777.006 -103235.238 159032.489 -103382.741 159032.49 -103382.741 159032.493 -103382.743 159305.048 -103495.639 159590.007 -103571.993 159882.494 -103610.5 159882.501 -103610.5 160177.499 -103610.5 160177.506 -103610.5 160469.993 -103571.993 160754.952 -103495.639 161027.507 -103382.743 161282.994 -103235.238 161517.042 -103055.646 161725.646 -102847.042 161905.238 -102612.994 162052.743 -102357.507 162165.639 -102084.952 162241.993 -101799.993 162280.5 -101507.506 162280.5 -101212.494 162241.993 -100920.007 162165.639 -100635.048 162052.743 -100362.493 162025.639 -100315.548 161905.238 -100107.006 161725.647 -99872.959 161725.641 -99872.952 161517.047 -99664.358 161517.04 -99664.352 161282.993 -99484.761 161027.51 -99337.258 161027.5 -99337.254 160754.961 -99224.364 160754.954 -99224.362 160754.952 -99224.361 160469.993 -99148.007 160421.113 -99141.571 160177.513 -99109.5 160177.506 -99109.5 159882.494 -99109.5 159882.486 -99109.5 159604.085 -99146.153 159590.007 -99148.007 159415.861 -99194.669 159305.048 -99224.361 159305.038 -99224.364 159032.499 -99337.254 159032.489 -99337.258 158777.006 -99484.761 158542.959 -99664.352 158542.952 -99664.358 158334.358 -99872.952 158334.352 -99872.959 158154.761 -100107.006 158007.258 -100362.489 158007.254 -100362.499 157894.364 -100635.038 157894.361 -100635.048 157844.944 -100819.478 157818.008 -100920.004 157818.006 -100920.015 157779.5 -101212.486 155691.721 -101212.486 153173.306 -98694.071 154620 -98694.071 154620 -98945.928 154659.397 -99194.669 154737.219 -99434.184 154851.557 -99658.583 154925.748 -99760.697 154925.748 -99760.698 155542.421 -99144.024 155555.359 -99175.258 155637.437 -99298.097 155741.903 -99402.563 155864.742 -99484.641 155895.974 -99497.577 155279.3 -100114.25 155381.416 -100188.442 155605.815 -100302.78 155845.33 -100380.602 156094.072 -100420 156345.928 -100420 156594.669 -100380.602 156834.184 -100302.78 157058.575 -100188.446 157058.581 -100188.442 157160.697 -100114.25 157160.698 -100114.25 156544.025 -99497.578 156575.258 -99484.641 156698.097 -99402.563 156802.563 -99298.097 156884.641 -99175.258 156897.577 -99144.025 157514.25 -99760.698 157514.25 -99760.697 157588.442 -99658.581 157588.446 -99658.575 157702.78 -99434.184 157780.602 -99194.669 157820 -98945.928 157820 -98694.071 157780.602 -98445.33 157702.78 -98205.815 157588.442 -97981.416 157514.25 -97879.301 157514.25 -97879.3 156897.577 -98495.973 156884.641 -98464.742 156802.563 -98341.903 156698.097 -98237.437 156575.258 -98155.359 156544.024 -98142.421 157160.698 -97525.748 157058.583 -97451.557 156834.184 -97337.219 156594.669 -97259.397 156345.928 -97220 156094.072 -97220 155845.33 -97259.397 155605.815 -97337.219 155381.413 -97451.559 155279.301 -97525.747 155279.3 -97525.748 155895.974 -98142.421 155864.742 -98155.359 155741.903 -98237.437 155637.437 -98341.903 155555.359 -98464.742 155542.421 -98495.974 154925.748 -97879.3 154925.747 -97879.301 154851.559 -97981.413 154737.219 -98205.815 154659.397 -98445.33 154620 -98694.071 153173.306 -98694.071 150633.273 -96154.038 160969.5 -96154.038 160969.5 -96405.961 161008.91 -96654.785 161086.76 -96894.383 161201.132 -97118.848 161349.201 -97322.649 161349.205 -97322.654 161527.345 -97500.794 161527.35 -97500.798 161589.219 -97545.748 161731.155 -97648.87 161874.184 -97721.747 161955.616 -97763.239 161955.618 -97763.239 161955.621 -97763.241 162195.215 -97841.09 162444.038 -97880.5 162444.039 -97880.5 162695.961 -97880.5 162695.962 -97880.5 162944.785 -97841.09 163184.379 -97763.241 163408.845 -97648.87 163612.656 -97500.793 163790.793 -97322.656 163938.87 -97118.845 164053.241 -96894.379 164131.09 -96654.785 164170.5 -96405.962 164170.5 -96154.038 164131.09 -95905.215 164053.241 -95665.621 164053.239 -95665.618 164053.239 -95665.616 163949.058 -95461.151 163938.87 -95441.155 163919.952 -95415.117 163790.798 -95237.35 163790.794 -95237.345 163612.654 -95059.205 163612.649 -95059.201 163408.848 -94911.132 163408.847 -94911.131 163408.845 -94911.13 163338.747 -94875.413 163184.383 -94796.76 162944.785 -94718.91 162695.962 -94679.5 162444.038 -94679.5 162319.626 -94699.205 162195.214 -94718.91 161955.616 -94796.76 161731.151 -94911.132 161527.35 -95059.201 161527.345 -95059.205 161349.205 -95237.345 161349.201 -95237.35 161201.132 -95441.151 161086.76 -95665.616 161008.91 -95905.214 160969.5 -96154.038 150633.273 -96154.038 149069.72 -94590.485 149036.236 -94529.163 149041.22 -94459.471 149083.092 -94403.538 149088.483 -94399.722 149130.289 -94371.789 149241.789 -94260.289 149329.394 -94129.179 149389.737 -93983.497 149420.5 -93828.842 149420.5 -93671.158 149420.5 -93671.155 149420.499 -93671.153 149389.738 -93516.51 149389.737 -93516.503 149389.735 -93516.498 149329.397 -93370.827 149329.39 -93370.814 149241.398 -93239.125 149224.389 -93184.804 149221.561 -93185.177 149220.5 -93177.124 149220.5 -93177.117 149179.577 -93024.39 149179.573 -93024.383 149100.524 -92887.464 149100.521 -92887.46 149100.52 -92887.458 148988.716 -92775.654 148988.715 -92775.653 148984.385 -92771.323 148984.374 -92771.313 142900.242 -86687.181 142866.757 -86625.858 142871.741 -86556.166 142913.613 -86500.233 142979.077 -86475.816 142987.923 -86475.5 142992.194 -86475.5 143092.923 -86459.545 143213.805 -86440.4 143298.045 -86413.027 143367.883 -86411.032 143424.042 -86443.278 143591.284 -86610.52 143591.286 -86610.521 143591.29 -86610.524 143707.85 -86677.819 143728.216 -86689.577 143880.943 -86730.501 143880.945 -86730.501 144046.654 -86730.501 144046.67 -86730.5 148040.234 -86730.5 148107.273 -86750.185 148109.125 -86751.398 148240.814 -86839.39 148240.827 -86839.397 148386.498 -86899.735 148386.503 -86899.737 148541.153 -86930.499 148541.156 -86930.5 148541.158 -86930.5 148698.844 -86930.5 148698.845 -86930.499 148853.497 -86899.737 148999.179 -86839.394 149130.289 -86751.789 149230.501 -86651.577 153834.5 -86651.577 153834.5 -86848.422 153865.29 -87042.826 153926.117 -87230.029 154015.476 -87405.405 154131.172 -87564.646 154270.354 -87703.828 154429.595 -87819.524 154506.5 -87858.709 154604.97 -87908.882 154604.972 -87908.882 154604.975 -87908.884 154705.317 -87941.487 154792.173 -87969.709 154986.578 -88000.5 154986.583 -88000.5 155183.422 -88000.5 155377.826 -87969.709 155565.025 -87908.884 155740.405 -87819.524 155899.646 -87703.828 156038.828 -87564.646 156154.524 -87405.405 156243.884 -87230.025 156304.709 -87042.826 156335.5 -86848.422 156335.5 -86651.577 158684.5 -86651.577 158684.5 -86848.422 158715.29 -87042.826 158776.117 -87230.029 158865.476 -87405.405 158981.172 -87564.646 159120.354 -87703.828 159279.595 -87819.524 159356.5 -87858.709 159454.97 -87908.882 159454.972 -87908.882 159454.975 -87908.884 159555.317 -87941.487 159642.173 -87969.709 159836.578 -88000.5 159836.583 -88000.5 160033.422 -88000.5 160227.826 -87969.709 160415.025 -87908.884 160590.405 -87819.524 160749.646 -87703.828 160888.828 -87564.646 161004.524 -87405.405 161093.884 -87230.025 161154.709 -87042.826 161185.5 -86848.422 161185.5 -86651.577 161154.709 -86457.173 161093.882 -86269.97 161004.523 -86094.594 160888.828 -85935.354 160749.646 -85796.172 160590.405 -85680.476 160415.029 -85591.117 160227.826 -85530.29 160033.422 -85499.5 160033.417 -85499.5 159836.583 -85499.5 159836.578 -85499.5 159642.173 -85530.29 159454.97 -85591.117 159279.594 -85680.476 159188.741 -85746.485 159120.354 -85796.172 159120.352 -85796.174 159120.351 -85796.174 158981.174 -85935.351 158981.174 -85935.352 158981.172 -85935.354 158949.72 -85978.644 158865.476 -86094.594 158776.117 -86269.97 158715.29 -86457.173 158684.5 -86651.577 156335.5 -86651.577 156304.709 -86457.173 156243.882 -86269.97 156154.523 -86094.594 156038.828 -85935.354 155899.646 -85796.172 155740.405 -85680.476 155565.029 -85591.117 155377.826 -85530.29 155183.422 -85499.5 155183.417 -85499.5 154986.583 -85499.5 154986.578 -85499.5 154792.173 -85530.29 154604.97 -85591.117 154429.594 -85680.476 154338.741 -85746.485 154270.354 -85796.172 154270.352 -85796.174 154270.351 -85796.174 154131.174 -85935.351 154131.174 -85935.352 154131.172 -85935.354 154099.72 -85978.644 154015.476 -86094.594 153926.117 -86269.97 153865.29 -86457.173 153834.5 -86651.577 149230.501 -86651.577 149241.789 -86640.289 149265.631 -86604.606 149283.53 -86577.82 149329.39 -86509.185 149329.39 -86509.184 149329.394 -86509.179 149389.737 -86363.497 149420.5 -86208.842 149420.5 -86051.158 149420.5 -86051.155 149420.499 -86051.153 149397.465 -85935.354 149389.737 -85896.503 149381.947 -85877.697 149329.397 -85750.827 149329.39 -85750.814 149241.789 -85619.711 149241.786 -85619.707 149130.292 -85508.213 149130.288 -85508.21 148999.185 -85420.609 148999.172 -85420.602 148853.501 -85360.264 148853.489 -85360.261 148698.845 -85329.5 148698.842 -85329.5 148541.158 -85329.5 148541.155 -85329.5 148386.51 -85360.261 148386.498 -85360.264 148240.827 -85420.602 148240.814 -85420.609 148109.125 -85508.602 148042.447 -85529.48 148040.234 -85529.5 144392.509 -85529.5 144325.47 -85509.815 144279.715 -85457.011 144269.771 -85387.853 144270.036 -85386.102 144270.924 -85380.499 144287.095 -85278.394 144305.5 -85162.194 144305.5 -84937.805 144270.4 -84716.194 144221.646 -84566.147 144201.063 -84502.798 144201.061 -84502.795 144201.061 -84502.793 144144.144 -84391.089 144099.197 -84302.875 144049.206 -84234.068 143967.316 -84121.355 143967.312 -84121.35 143808.649 -83962.687 143808.644 -83962.683 143627.128 -83830.805 143627.127 -83830.804 143627.125 -83830.803 143427.202 -83728.937 143328.151 -83696.753 143213.805 -83659.599 142992.194 -83624.5 142992.189 -83624.5 142767.811 -83624.5 142767.806 -83624.5 142546.191 -83659.6 142461.953 -83686.97 142392.111 -83688.965 142335.955 -83656.72 142289.013 -83609.778 153384.5 -83609.778 153384.5 -83830.222 153401.742 -83939.086 153418.985 -84047.952 153487.103 -84257.603 153487.104 -84257.606 153554.819 -84390.5 153577.852 -84435.706 153587.187 -84454.025 153716.752 -84632.358 153716.756 -84632.363 153872.636 -84788.243 153872.641 -84788.247 154028.192 -84901.26 154050.978 -84917.815 154173.803 -84980.398 154247.393 -85017.895 154247.396 -85017.896 154352.221 -85051.955 154457.049 -85086.015 154674.778 -85120.5 154674.779 -85120.5 154895.221 -85120.5 154895.222 -85120.5 155112.951 -85086.015 155322.606 -85017.895 155519.022 -84917.815 155697.365 -84788.242 155853.242 -84632.365 155982.815 -84454.022 156082.895 -84257.606 156151.015 -84047.951 156185.5 -83830.222 156185.5 -83609.778 158834.5 -83609.778 158834.5 -83830.222 158851.742 -83939.086 158868.985 -84047.952 158937.103 -84257.603 158937.104 -84257.606 159004.819 -84390.5 159027.852 -84435.706 159037.187 -84454.025 159166.752 -84632.358 159166.756 -84632.363 159322.636 -84788.243 159322.641 -84788.247 159478.192 -84901.26 159500.978 -84917.815 159623.803 -84980.398 159697.393 -85017.895 159697.396 -85017.896 159802.221 -85051.955 159907.049 -85086.015 160124.778 -85120.5 160124.779 -85120.5 160345.221 -85120.5 160345.222 -85120.5 160562.951 -85086.015 160772.606 -85017.895 160969.022 -84917.815 161147.365 -84788.242 161303.242 -84632.365 161432.815 -84454.022 161532.895 -84257.606 161601.015 -84047.951 161635.5 -83830.222 161635.5 -83609.778 161601.015 -83392.049 161559.548 -83264.424 161532.896 -83182.396 161532.895 -83182.393 161480.573 -83079.707 161432.815 -82985.978 161416.26 -82963.192 161303.247 -82807.641 161303.243 -82807.636 161147.363 -82651.756 161147.358 -82651.752 160969.025 -82522.187 160969.024 -82522.186 160969.022 -82522.185 160906.096 -82490.122 160772.606 -82422.104 160772.603 -82422.103 160562.952 -82353.985 160454.086 -82336.742 160345.222 -82319.5 160124.778 -82319.5 160052.201 -82330.995 159907.047 -82353.985 159697.396 -82422.103 159697.393 -82422.104 159500.974 -82522.187 159322.641 -82651.752 159322.636 -82651.756 159166.756 -82807.636 159166.752 -82807.641 159037.187 -82985.974 158937.104 -83182.393 158937.103 -83182.396 158868.985 -83392.047 158839.955 -83575.339 158834.5 -83609.778 156185.5 -83609.778 156151.015 -83392.049 156109.548 -83264.424 156082.896 -83182.396 156082.895 -83182.393 156030.573 -83079.707 155982.815 -82985.978 155966.26 -82963.192 155853.247 -82807.641 155853.243 -82807.636 155697.363 -82651.756 155697.358 -82651.752 155519.025 -82522.187 155519.024 -82522.186 155519.022 -82522.185 155456.096 -82490.122 155322.606 -82422.104 155322.603 -82422.103 155112.952 -82353.985 155004.086 -82336.742 154895.222 -82319.5 154674.778 -82319.5 154602.201 -82330.995 154457.047 -82353.985 154247.396 -82422.103 154247.393 -82422.104 154050.974 -82522.187 153872.641 -82651.752 153872.636 -82651.756 153716.756 -82807.636 153716.752 -82807.641 153587.187 -82985.974 153487.104 -83182.393 153487.103 -83182.396 153418.985 -83392.047 153389.955 -83575.339 153384.5 -83609.778 142289.013 -83609.778 136777.59 -78098.355 136777.588 -78098.352 136658.717 -77979.481 136658.716 -77979.48 136571.904 -77929.36 136571.904 -77929.359 136571.9 -77929.358 136521.785 -77900.423 136369.057 -77859.499 136210.943 -77859.499 136203.347 -77859.499 136203.331 -77859.5 136160.097 -77859.5 136093.058 -77839.815 136072.416 -77823.181 133943.118 -75693.883 133909.633 -75632.56 133912.867 -75567.886 133944.784 -75469.66 133964.265 -75346.658 133980.5 -75244.162 133980.5 -75015.837 133944.784 -74790.339 133874.229 -74573.196 133770.578 -74369.771 133636.379 -74185.063 133474.937 -74023.621 133387.807 -73960.317 133345.143 -73904.988 133339.164 -73835.374 133371.77 -73773.579 133387.807 -73759.683 133474.937 -73696.379 133636.379 -73534.937 133770.579 -73350.228 133817.467 -73258.205 133865.442 -73207.409 133927.952 -73190.5 162049.903 -73190.5 162116.942 -73210.185 162137.584 -73226.819 167313.181 -78402.416 167346.666 -78463.739 167349.5 -78490.097 167349.5 -83167.097 167329.815 -83234.136 167277.011 -83279.891 167207.853 -83289.835 167144.297 -83260.81 167110.94 -83214.552 167109.396 -83210.826 167109.39 -83210.814 167021.789 -83079.711 167021.786 -83079.707 166910.292 -82968.213 166910.288 -82968.21 166779.185 -82880.609 166779.172 -82880.602 166633.501 -82820.264 166633.489 -82820.261 166478.845 -82789.5 166478.842 -82789.5 166321.158 -82789.5 166321.155 -82789.5 166166.51 -82820.261 166166.498 -82820.264 166020.827 -82880.602 166020.814 -82880.609 165889.711 -82968.21 165889.707 -82968.213 165778.213 -83079.707 165778.21 -83079.711 165690.609 -83210.814 165690.602 -83210.827 165630.264 -83356.498 165630.261 -83356.508 165599.361 -83511.85 165566.976 -83573.761 165565.425 -83575.339 164599.481 -84541.282 164599.479 -84541.285 164581.967 -84571.618 164558.877 -84611.611 164520.423 -84678.215 164484.632 -84811.787 164479.499 -84830.944 164479.499 -84999.046 164479.5 -84999.059 164479.5 -87569.056 164520.423 -87721.783 164520.426 -87721.79 164599.475 -87858.709 164599.479 -87858.714 164599.48 -87858.716 164711.284 -87970.52 164711.286 -87970.521 164711.29 -87970.524 164763.211 -88000.5 164848.216 -88049.577 165000.943 -88090.5 165000.945 -88090.5 169499.055 -88090.5 169499.057 -88090.5 169651.784 -88049.577 169788.716 -87970.52 169900.52 -87858.716 169979.577 -87721.784 170020.5 -87569.057 170020.5 -78910.943 169998.468 -78828.716 169979.577 -78758.215 169941.223 -78691.784 169900.52 -78621.284 169788.716 -78509.48 169788.715 -78509.479 169784.385 -78505.149 169784.374 -78505.139 160967.59 -69688.355 160967.588 -69688.352 160848.717 -69569.481 160848.716 -69569.48 160761.904 -69519.36 160761.904 -69519.359 160761.9 -69519.358 160711.785 -69490.423 160559.057 -69449.499 160400.943 -69449.499 160393.347 -69449.499 160393.331 -69449.5 133927.952 -69449.5 133860.913 -69429.815 133817.467 -69381.795 133770.578 -69289.771 133636.379 -69105.063 133474.937 -68943.621 133290.228 -68809.421 133086.803 -68705.77 132869.66 -68635.215 132644.162 -68599.5 132644.157 -68599.5 132415.843 -68599.5 132415.838 -68599.5 132190.339 -68635.215 131973.196 -68705.77 131769.771 -68809.421 131585.061 -68943.622 131423.622 -69105.061 131289.421 -69289.771 131185.77 -69493.196 131115.215 -69710.339 131079.5 -69935.837 131079.5 -70164.162 131115.215 -70389.66 131185.77 -70606.803 131242.533 -70718.205 131289.421 -70810.228 131423.621 -70994.937 131585.063 -71156.379 131585.069 -71156.383 131672.191 -71219.683 131714.857 -71275.013 131720.835 -71344.627 131688.228 -71406.421 131672.191 -71420.317 131585.069 -71483.616 131585.06 -71483.623 131423.622 -71645.061 131289.421 -71829.771 131185.77 -72033.196 131115.215 -72250.339 131079.5 -72475.837 131079.5 -72704.162 131115.215 -72929.66 131185.77 -73146.803 131242.533 -73258.205 131289.421 -73350.228 131423.621 -73534.937 131585.063 -73696.379 131585.069 -73696.383 131672.191 -73759.683 131714.857 -73815.013 131720.835 -73884.627 131688.228 -73946.421 131672.191 -73960.317 131585.069 -74023.616 131585.06 -74023.623 131423.622 -74185.061 131289.421 -74369.771 131185.77 -74573.196 131115.215 -74790.339 131079.5 -75015.837 131079.5 -75244.162 131115.215 -75469.66 131185.77 -75686.803 131289.421 -75890.228 131423.622 -76074.938 131425.095 -76076.411 131425.475 -76077.107 131426.785 -76078.641 131426.462 -76078.916 131458.58 -76137.734 131458.58 -76190.45 131448.828 -76235.277 132318.939 -77105.387 132298.409 -77110.889 132161.592 -77189.881 132049.881 -77301.592 131970.889 -77438.409 131965.387 -77458.939 131095.277 -76588.829 131086.402 -76612.623 131086.401 -76612.627 131080 -76672.155 131080 -78667.844 131086.401 -78727.375 131095.277 -78751.17 131965.387 -77881.06 131970.889 -77901.591 132049.881 -78038.408 132161.592 -78150.119 132298.409 -78229.111 132318.939 -78234.612 131448.829 -79104.72 131448.829 -79104.722 131472.622 -79113.597 131472.623 -79113.598 131532.155 -79119.999 131532.172 -79120 133527.828 -79120 133527.844 -79119.999 133587.372 -79113.598 133611.169 -79104.721 132741.06 -78234.612 132761.591 -78229.111 132898.408 -78150.119 133010.119 -78038.408 133089.111 -77901.591 133094.612 -77881.06 133964.721 -78751.169 133973.598 -78727.372 133979.999 -78667.844 133980 -78667.827 133980 -77728.597 133999.685 -77661.558 134052.489 -77615.803 134121.647 -77605.859 134185.203 -77634.884 134191.681 -77640.916 135375.139 -78824.374 135375.149 -78824.385 135379.479 -78828.715 135379.48 -78828.716 135491.284 -78940.52 135578.095 -78990.639 135578.097 -78990.641 135616.151 -79012.611 135628.215 -79019.577 135780.943 -79060.5 135939.057 -79060.5 135989.903 -79060.5 136056.942 -79080.185 136077.584 -79096.819 141486.72 -84505.955 141520.205 -84567.278 141516.97 -84631.953 141489.6 -84716.191 141454.5 -84937.805 141454.5 -84942.077 141434.815 -85009.116 141382.011 -85054.871 141312.853 -85064.815 141249.297 -85035.79 141242.819 -85029.758 139675.416 -83462.355 139675.414 -83462.352 139556.543 -83343.481 139556.538 -83343.477 139443.752 -83278.361 139419.611 -83264.423 139406.127 -83260.81 139266.883 -83223.499 139108.769 -83223.499 139101.173 -83223.499 139101.157 -83223.5 129456.51 -83223.5 129456.494 -83223.499 129448.898 -83223.499 129290.783 -83223.499 129138.055 -83264.423 129138.053 -83264.423 129138.053 -83264.424 129094.04 -83289.835 129001.13 -83343.477 129001.121 -83343.482 127800.424 -84544.181 127739.101 -84577.666 127712.743 -84580.5 123304 -84580.5 123236.961 -84560.815 123191.206 -84508.011 123180 -84456.5 123180 -83630 121728.482 -83630 121739.111 -83611.591 121780 -83458.991 121780 -83301.009 121739.111 -83148.409 121728.482 -83130 123180 -83130 123180 -81832.172 123179.999 -81832.155 123173.598 -81772.627 123173.596 -81772.62 123123.354 -81637.913 123123.35 -81637.906 123037.19 -81522.812 123037.187 -81522.809 122922.093 -81436.649 122922.086 -81436.645 122787.379 -81386.403 122787.372 -81386.401 122727.844 -81380 121430 -81380 121430 -82831.517 121411.591 -82820.889 121258.991 -82780 121101.009 -82780 120948.409 -82820.889 120930 -82831.517 120930 -81380 119632.155 -81380 119572.627 -81386.401 119572.62 -81386.403 119437.913 -81436.645 119437.906 -81436.649 119322.812 -81522.809 119322.809 -81522.812 119236.649 -81637.906 119236.645 -81637.913 119186.403 -81772.62 119186.401 -81772.627 119180 -81832.155 119180 -83130 120631.518 -83130 120620.889 -83148.409 120580 -83301.009 120580 -83458.991 120620.889 -83611.591 120631.518 -83630 119180 -83630 119180 -84456.5 119160.315 -84523.539 119107.511 -84569.294 119056 -84580.5 118011.644 -84580.5 117944.605 -84560.815 117898.85 -84508.011 117888.906 -84438.853 117904.256 -84394.501 117931.714 -84346.942 117978.043 -84266.697 118078.398 -84024.419 118146.27 -83771.116 118180.5 -83511.12 118180.5 -83248.88 118146.27 -82988.884 118078.398 -82735.581 118078.394 -82735.571 117978.046 -82493.309 117978.041 -82493.299 117846.924 -82266.196 117687.281 -82058.148 117687.274 -82058.14 117501.86 -81872.726 117501.851 -81872.718 117293.803 -81713.075 117066.7 -81581.958 117066.69 -81581.953 116824.428 -81481.605 116824.421 -81481.603 116824.419 -81481.602 116571.116 -81413.73 116513.339 -81406.123 116311.127 -81379.5 116311.12 -81379.5 116048.88 -81379.5 116048.872 -81379.5 115817.772 -81409.926 115788.884 -81413.73 115703.364 -81436.645 115535.581 -81481.602 115535.565 -81481.607 115325.929 -81568.441 115256.46 -81575.91 115193.981 -81544.635 115190.796 -81541.561 114866.59 -81217.355 114866.588 -81217.352 114747.717 -81098.481 114747.716 -81098.48 114660.904 -81048.36 114660.904 -81048.359 114660.9 -81048.358 114610.785 -81019.423 114458.057 -80978.499 114299.943 -80978.499 114292.347 -80978.499 114292.331 -80978.5 110520.671 -80978.5 110520.655 -80978.499 110513.059 -80978.499 110354.944 -80978.499 110278.58 -80998.961 110202.215 -81019.423 110202.21 -81019.426 110065.291 -81098.475 110065.283 -81098.481 108898.481 -82265.283 108898.479 -82265.286 108848.361 -82352.095 108848.359 -82352.097 108819.425 -82402.21 108819.424 -82402.211 108806.051 -82452.119 108778.499 -82554.944 108778.499 -82713.058 108778.499 -82713.06 108778.5 -82723.054 108778.5 -93372.273 108778.499 -93372.291 108778.499 -93537.997 108778.498 -93537.997 105950.5 -93537.997 105950.5 -63824.5 105970.185 -63757.461 106022.989 -63711.706 106074.5 -63700.5 170175.5 -63700.5 170242.539 -63720.185"/></g></svg>