<svg version="1.1" xmlns="http://www.w3.org/2000/svg" xmlns:xlink="http://www.w3.org/1999/xlink" stroke-linecap="round" stroke-linejoin="round" stroke-width="0" fill-rule="evenodd" width="55.97mm" height="68.24mm" viewBox="110580 -137690 55970 68240" id="YTfD0nZ7H-Oeioh8NR2e"><defs><circle cx="0" cy="0" r="150" id="YTfD0nZ7H-Oeioh8NR2e_pad-1"/><circle cx="0" cy="0" r="425" id="YTfD0nZ7H-Oeioh8NR2e_pad-2"/><circle cx="0" cy="0" r="600" id="YTfD0nZ7H-Oeioh8NR2e_pad-3"/><circle cx="0" cy="0" r="750" id="YTfD0nZ7H-Oeioh8NR2e_pad-4"/></defs><g transform="translate(0,-207140) scale(1,-1)" fill="currentColor" stroke="currentColor"><use xlink:href="#YTfD0nZ7H-Oeioh8NR2e_pad-1" x="148620" y="-86130"/><use xlink:href="#YTfD0nZ7H-Oeioh8NR2e_pad-1" x="148620" y="-93750"/><use xlink:href="#YTfD0nZ7H-Oeioh8NR2e_pad-1" x="148620" y="-106450"/><use xlink:href="#YTfD0nZ7H-Oeioh8NR2e_pad-1" x="148620" y="-131850"/><use xlink:href="#YTfD0nZ7H-Oeioh8NR2e_pad-1" x="166400" y="-83590"/><use xlink:href="#YTfD0nZ7H-Oeioh8NR2e_pad-1" x="166400" y="-86130"/><use xlink:href="#YTfD0nZ7H-Oeioh8NR2e_pad-1" x="166400" y="-131850"/><use xlink:href="#YTfD0nZ7H-Oeioh8NR2e_pad-2" x="130280" y="-85050"/><use xlink:href="#YTfD0nZ7H-Oeioh8NR2e_pad-2" x="134480" y="-85050"/><use xlink:href="#YTfD0nZ7H-Oeioh8NR2e_pad-2" x="138680" y="-85050"/><use xlink:href="#YTfD0nZ7H-Oeioh8NR2e_pad-2" x="142880" y="-85050"/><use xlink:href="#YTfD0nZ7H-Oeioh8NR2e_pad-3" x="111180" y="-83380"/><use xlink:href="#YTfD0nZ7H-Oeioh8NR2e_pad-3" x="116180" y="-83380"/><use xlink:href="#YTfD0nZ7H-Oeioh8NR2e_pad-3" x="121180" y="-83380"/><use xlink:href="#YTfD0nZ7H-Oeioh8NR2e_pad-3" x="132530" y="-70050"/><use xlink:href="#YTfD0nZ7H-Oeioh8NR2e_pad-3" x="132530" y="-72590"/><use xlink:href="#YTfD0nZ7H-Oeioh8NR2e_pad-3" x="132530" y="-75130"/><use xlink:href="#YTfD0nZ7H-Oeioh8NR2e_pad-3" x="132530" y="-77670"/><use xlink:href="#YTfD0nZ7H-Oeioh8NR2e_pad-4" x="118120" y="-98840"/><use xlink:href="#YTfD0nZ7H-Oeioh8NR2e_pad-4" x="118130" y="-117890"/><use xlink:href="#YTfD0nZ7H-Oeioh8NR2e_pad-4" x="118140" y="-136940"/><use xlink:href="#YTfD0nZ7H-Oeioh8NR2e_pad-4" x="124470" y="-96300"/><use xlink:href="#YTfD0nZ7H-Oeioh8NR2e_pad-4" x="124480" y="-115350"/><use xlink:href="#YTfD0nZ7H-Oeioh8NR2e_pad-4" x="124490" y="-134400"/><use xlink:href="#YTfD0nZ7H-Oeioh8NR2e_pad-4" x="137170" y="-98830"/><use xlink:href="#YTfD0nZ7H-Oeioh8NR2e_pad-4" x="137180" y="-117880"/><use xlink:href="#YTfD0nZ7H-Oeioh8NR2e_pad-4" x="137190" y="-136930"/><use xlink:href="#YTfD0nZ7H-Oeioh8NR2e_pad-4" x="143520" y="-96290"/><use xlink:href="#YTfD0nZ7H-Oeioh8NR2e_pad-4" x="143530" y="-115340"/><use xlink:href="#YTfD0nZ7H-Oeioh8NR2e_pad-4" x="143540" y="-134390"/><use xlink:href="#YTfD0nZ7H-Oeioh8NR2e_pad-4" x="156220" y="-98820"/><use xlink:href="#YTfD0nZ7H-Oeioh8NR2e_pad-4" x="156230" y="-117870"/><use xlink:href="#YTfD0nZ7H-Oeioh8NR2e_pad-4" x="156240" y="-136920"/><use xlink:href="#YTfD0nZ7H-Oeioh8NR2e_pad-4" x="162570" y="-96280"/><use xlink:href="#YTfD0nZ7H-Oeioh8NR2e_pad-4" x="162580" y="-115330"/><use xlink:href="#YTfD0nZ7H-Oeioh8NR2e_pad-4" x="162590" y="-134380"/></g></svg>