<svg version="1.1" xmlns="http://www.w3.org/2000/svg" xmlns:xlink="http://www.w3.org/1999/xlink" stroke-linecap="round" stroke-linejoin="round" stroke-width="0" fill-rule="evenodd" width="54.01mm" height="72.38mm" viewBox="109680 -141480 54010 72380" id="zhojceIUyKRd51MF_S30"><defs><circle cx="0" cy="0" r="2000" id="zhojceIUyKRd51MF_S30_pad-10"/><circle cx="0" cy="0" r="1100" id="zhojceIUyKRd51MF_S30_pad-11"/><g id="zhojceIUyKRd51MF_S30_pad-12"><polygon points="-675,-675 675,-675 675,675 -675,675"/><circle cx="-675" cy="-675" r="250"/><circle cx="675" cy="-675" r="250"/><circle cx="675" cy="675" r="250"/><circle cx="-675" cy="675" r="250"/><polygon points="-675,-925 675,-925 675,-425 -675,-425"/><polygon points="925,-675 925,675 425,675 425,-675"/><polygon points="675,425 -675,425 -675,925 675,925"/><polygon points="-425,675 -425,-675 -925,-675 -925,675"/></g><circle cx="0" cy="0" r="925" id="zhojceIUyKRd51MF_S30_pad-13"/><rect x="-1500" y="-1500" width="3000" height="3000" id="zhojceIUyKRd51MF_S30_pad-14"/><circle cx="0" cy="0" r="1500" id="zhojceIUyKRd51MF_S30_pad-15"/><rect x="-950" y="-950" width="1900" height="1900" id="zhojceIUyKRd51MF_S30_pad-16"/><circle cx="0" cy="0" r="950" id="zhojceIUyKRd51MF_S30_pad-17"/><rect x="-900" y="-900" width="1800" height="1800" rx="900" ry="900" id="zhojceIUyKRd51MF_S30_pad-18"/><rect x="-750" y="-750" width="1500" height="1500" rx="750" ry="750" id="zhojceIUyKRd51MF_S30_pad-19"/></defs><g transform="translate(0,-210580) scale(1,-1)" fill="currentColor" stroke="currentColor"><use xlink:href="#zhojceIUyKRd51MF_S30_pad-10" x="121930" y="-101380"/><use xlink:href="#zhojceIUyKRd51MF_S30_pad-11" x="124470" y="-96300"/><use xlink:href="#zhojceIUyKRd51MF_S30_pad-11" x="118120" y="-98840"/><use xlink:href="#zhojceIUyKRd51MF_S30_pad-12" x="130280" y="-85050"/><use xlink:href="#zhojceIUyKRd51MF_S30_pad-13" x="134480" y="-85050"/><use xlink:href="#zhojceIUyKRd51MF_S30_pad-13" x="138680" y="-85050"/><use xlink:href="#zhojceIUyKRd51MF_S30_pad-13" x="142880" y="-85050"/><use xlink:href="#zhojceIUyKRd51MF_S30_pad-14" x="121180" y="-83380"/><use xlink:href="#zhojceIUyKRd51MF_S30_pad-15" x="116180" y="-83380"/><use xlink:href="#zhojceIUyKRd51MF_S30_pad-15" x="111180" y="-83380"/><use xlink:href="#zhojceIUyKRd51MF_S30_pad-10" x="160030" y="-101360"/><use xlink:href="#zhojceIUyKRd51MF_S30_pad-11" x="162570" y="-96280"/><use xlink:href="#zhojceIUyKRd51MF_S30_pad-11" x="156220" y="-98820"/><use xlink:href="#zhojceIUyKRd51MF_S30_pad-10" x="160050" y="-139460"/><use xlink:href="#zhojceIUyKRd51MF_S30_pad-11" x="162590" y="-134380"/><use xlink:href="#zhojceIUyKRd51MF_S30_pad-11" x="156240" y="-136920"/><use xlink:href="#zhojceIUyKRd51MF_S30_pad-10" x="140990" y="-120420"/><use xlink:href="#zhojceIUyKRd51MF_S30_pad-11" x="143530" y="-115340"/><use xlink:href="#zhojceIUyKRd51MF_S30_pad-11" x="137180" y="-117880"/><use xlink:href="#zhojceIUyKRd51MF_S30_pad-10" x="140980" y="-101370"/><use xlink:href="#zhojceIUyKRd51MF_S30_pad-11" x="143520" y="-96290"/><use xlink:href="#zhojceIUyKRd51MF_S30_pad-11" x="137170" y="-98830"/><use xlink:href="#zhojceIUyKRd51MF_S30_pad-10" x="121950" y="-139480"/><use xlink:href="#zhojceIUyKRd51MF_S30_pad-11" x="124490" y="-134400"/><use xlink:href="#zhojceIUyKRd51MF_S30_pad-11" x="118140" y="-136940"/><use xlink:href="#zhojceIUyKRd51MF_S30_pad-10" x="160040" y="-120410"/><use xlink:href="#zhojceIUyKRd51MF_S30_pad-11" x="162580" y="-115330"/><use xlink:href="#zhojceIUyKRd51MF_S30_pad-11" x="156230" y="-117870"/><use xlink:href="#zhojceIUyKRd51MF_S30_pad-10" x="121940" y="-120430"/><use xlink:href="#zhojceIUyKRd51MF_S30_pad-11" x="124480" y="-115350"/><use xlink:href="#zhojceIUyKRd51MF_S30_pad-11" x="118130" y="-117890"/><use xlink:href="#zhojceIUyKRd51MF_S30_pad-16" x="132530" y="-77670"/><use xlink:href="#zhojceIUyKRd51MF_S30_pad-17" x="132530" y="-75130"/><use xlink:href="#zhojceIUyKRd51MF_S30_pad-17" x="132530" y="-72590"/><use xlink:href="#zhojceIUyKRd51MF_S30_pad-17" x="132530" y="-70050"/><use xlink:href="#zhojceIUyKRd51MF_S30_pad-10" x="141000" y="-139470"/><use xlink:href="#zhojceIUyKRd51MF_S30_pad-11" x="143540" y="-134390"/><use xlink:href="#zhojceIUyKRd51MF_S30_pad-11" x="137190" y="-136930"/><use xlink:href="#zhojceIUyKRd51MF_S30_pad-18" x="160235" y="-83720"/><use xlink:href="#zhojceIUyKRd51MF_S30_pad-19" x="159935" y="-86750"/><use xlink:href="#zhojceIUyKRd51MF_S30_pad-19" x="155085" y="-86750"/><use xlink:href="#zhojceIUyKRd51MF_S30_pad-18" x="154785" y="-83720"/></g></svg>